%TF.GenerationSoftware,KiCad,Pcbnew,6.0.11+dfsg-1*%
%TF.CreationDate,2024-02-06T14:07:20+02:00*%
%TF.ProjectId,fake-platka,66616b65-2d70-46c6-9174-6b612e6b6963,rev?*%
%TF.SameCoordinates,Original*%
%TF.FileFunction,Profile,NP*%
%FSLAX46Y46*%
G04 Gerber Fmt 4.6, Leading zero omitted, Abs format (unit mm)*
G04 Created by KiCad (PCBNEW 6.0.11+dfsg-1) date 2024-02-06 14:07:20*
%MOMM*%
%LPD*%
G01*
G04 APERTURE LIST*
%TA.AperFunction,Profile*%
%ADD10C,0.100000*%
%TD*%
%TA.AperFunction,Profile*%
%ADD11C,0.609600*%
%TD*%
G04 APERTURE END LIST*
D10*
X31750000Y-33020000D02*
X228600000Y-33020000D01*
X228600000Y-33020000D02*
X228600000Y-107950000D01*
X228600000Y-107950000D02*
X31750000Y-107950000D01*
X31750000Y-107950000D02*
X31750000Y-33020000D01*
D11*
%TO.C,J7*%
X57405100Y-43201898D02*
X57405100Y-44294098D01*
X43905100Y-43201898D02*
X43905100Y-44294098D01*
%TO.C,J8*%
X76765100Y-43201898D02*
X76765100Y-44294098D01*
X63265100Y-43201898D02*
X63265100Y-44294098D01*
%TO.C,J1*%
X149155100Y-43201898D02*
X149155100Y-44294098D01*
X135655100Y-43201898D02*
X135655100Y-44294098D01*
%TO.C,J14*%
X58654900Y-97768102D02*
X58654900Y-96675902D01*
X45154900Y-97768102D02*
X45154900Y-96675902D01*
%TO.C,J15*%
X64204900Y-97768102D02*
X64204900Y-96675902D01*
X77704900Y-97768102D02*
X77704900Y-96675902D01*
%TO.C,J29*%
X195814900Y-97768102D02*
X195814900Y-96675902D01*
X182314900Y-97768102D02*
X182314900Y-96675902D01*
%TO.C,J28*%
X217404900Y-97768102D02*
X217404900Y-96675902D01*
X203904900Y-97768102D02*
X203904900Y-96675902D01*
%TO.C,J21*%
X202965100Y-43201898D02*
X202965100Y-44294098D01*
X216465100Y-43201898D02*
X216465100Y-44294098D01*
%TO.C,J22*%
X182645100Y-43201898D02*
X182645100Y-44294098D01*
X196145100Y-43201898D02*
X196145100Y-44294098D01*
%TO.C,J2*%
X122485100Y-43201898D02*
X122485100Y-44294098D01*
X108985100Y-43201898D02*
X108985100Y-44294098D01*
%TD*%
M02*
