%TF.GenerationSoftware,KiCad,Pcbnew,8.0.0*%
%TF.CreationDate,2024-03-12T20:29:06+02:00*%
%TF.ProjectId,fake-platka,66616b65-2d70-46c6-9174-6b612e6b6963,rev?*%
%TF.SameCoordinates,Original*%
%TF.FileFunction,Plated,1,2,PTH,Drill*%
%TF.FilePolarity,Positive*%
%FSLAX46Y46*%
G04 Gerber Fmt 4.6, Leading zero omitted, Abs format (unit mm)*
G04 Created by KiCad (PCBNEW 8.0.0) date 2024-03-12 20:29:06*
%MOMM*%
%LPD*%
G01*
G04 APERTURE LIST*
%TA.AperFunction,ViaDrill*%
%ADD10C,0.381000*%
%TD*%
%TA.AperFunction,ViaDrill*%
%ADD11C,0.400000*%
%TD*%
%TA.AperFunction,ComponentDrill*%
%ADD12C,0.800000*%
%TD*%
%TA.AperFunction,ComponentDrill*%
%ADD13C,0.889000*%
%TD*%
%TA.AperFunction,ViaDrill*%
%ADD14C,1.000000*%
%TD*%
%TA.AperFunction,ComponentDrill*%
%ADD15C,1.020000*%
%TD*%
%TA.AperFunction,ComponentDrill*%
%ADD16C,1.100000*%
%TD*%
%TA.AperFunction,ComponentDrill*%
%ADD17C,1.200000*%
%TD*%
%TA.AperFunction,ComponentDrill*%
%ADD18C,2.692400*%
%TD*%
%TA.AperFunction,ComponentDrill*%
%ADD19C,3.048000*%
%TD*%
G04 APERTURE END LIST*
D10*
X70954900Y-81459900D03*
X72224900Y-132259900D03*
X72859900Y-90349900D03*
X77939900Y-92254900D03*
X78574900Y-107494900D03*
X81749900Y-92254900D03*
X82384900Y-131624900D03*
X83654900Y-99239900D03*
X84924900Y-117019900D03*
X86829900Y-90984900D03*
X86829900Y-101779900D03*
X86829900Y-110034900D03*
X91909900Y-90349900D03*
X91909900Y-95429900D03*
X91909900Y-108764900D03*
X91909900Y-116384900D03*
X91909900Y-118289900D03*
X92544900Y-98604900D03*
X93814900Y-80189900D03*
X95084900Y-115114900D03*
X96989900Y-96064900D03*
X96989900Y-104319900D03*
X96989900Y-106859900D03*
X96989900Y-114479900D03*
X96989900Y-122734900D03*
X102069900Y-125274900D03*
X102069900Y-138609900D03*
X103339900Y-116384900D03*
X176364900Y-137974900D03*
X187794900Y-140244400D03*
X199224900Y-135434900D03*
X204304900Y-81459900D03*
X204304900Y-90349900D03*
X204304900Y-97969900D03*
X204304900Y-99239900D03*
X204304900Y-108129900D03*
X204304900Y-117019900D03*
X208749900Y-132259900D03*
X210019900Y-98604900D03*
X211924900Y-90349900D03*
X211924900Y-95429900D03*
X211924900Y-99239900D03*
X211924900Y-104319900D03*
X211924900Y-113209900D03*
X211924900Y-117019900D03*
X211924900Y-122099900D03*
X213194900Y-94159900D03*
X213194900Y-101779900D03*
X213829900Y-113209900D03*
X213829900Y-121464900D03*
X214464900Y-89079900D03*
X218274900Y-135434900D03*
X218909900Y-128449900D03*
X219544900Y-111304900D03*
X220814900Y-127814900D03*
X230339900Y-77014900D03*
X235419900Y-98604900D03*
D11*
X63334900Y-115114900D03*
X64604900Y-119520400D03*
X64604900Y-127814900D03*
X66470400Y-124639900D03*
X67144900Y-108129900D03*
X68414900Y-107494900D03*
X68414900Y-122734900D03*
X69684900Y-106859900D03*
X70319900Y-130354900D03*
X74129900Y-125274900D03*
X74169400Y-128449900D03*
X76669900Y-134125400D03*
X91768496Y-101286304D03*
X91909900Y-93352900D03*
X96989900Y-130989900D03*
X100164900Y-90349900D03*
X100164900Y-98604900D03*
X100164900Y-108764900D03*
X100164900Y-117019900D03*
X100799900Y-100509900D03*
X100799900Y-111304900D03*
X100799900Y-118289900D03*
X100799900Y-119559900D03*
X100836300Y-99276300D03*
X100836300Y-109436300D03*
X101434900Y-85904900D03*
X102069900Y-96064900D03*
X102704900Y-87174900D03*
X102844594Y-100689094D03*
X103339900Y-104954900D03*
X103974900Y-106859900D03*
X109689900Y-97334900D03*
X110999400Y-103049900D03*
X120484900Y-140514900D03*
X129374900Y-127179900D03*
X163029900Y-129719900D03*
X163664900Y-139244900D03*
X163664900Y-141149900D03*
X171284900Y-129719900D03*
X182714900Y-122734900D03*
X185889900Y-120194900D03*
X187159900Y-130989900D03*
X188390400Y-113209900D03*
X189064900Y-124639900D03*
X189699900Y-116384900D03*
X192200400Y-123369900D03*
X194144900Y-124004900D03*
X194740400Y-117019900D03*
X195414900Y-94794900D03*
X195414900Y-129084900D03*
X195414900Y-131624900D03*
X196049900Y-97969900D03*
X196049900Y-103049900D03*
X196049900Y-105589900D03*
X196049900Y-120829900D03*
X199224900Y-114479900D03*
X199224900Y-117019900D03*
X199859900Y-111939900D03*
X200494900Y-85904900D03*
X200494900Y-105589900D03*
X200534400Y-93483024D03*
X201129900Y-92254900D03*
X201764900Y-110669900D03*
X202399900Y-132259900D03*
X203034900Y-110669900D03*
X203669900Y-111939900D03*
X204304900Y-122099900D03*
X206844900Y-95429900D03*
X206844900Y-104319900D03*
X207479900Y-113805400D03*
X214606304Y-112433496D03*
X227016017Y-124793625D03*
X229069900Y-115749900D03*
X233006900Y-106605900D03*
X234784900Y-102414900D03*
X234784900Y-131624900D03*
X235419900Y-117654900D03*
X235419900Y-136069900D03*
X237324900Y-95429900D03*
X239229900Y-129719900D03*
X240499900Y-79554900D03*
X240499900Y-138609900D03*
X241769900Y-140514900D03*
D12*
%TO.C,R3*%
X58234900Y-96699900D03*
X58234900Y-106859900D03*
%TO.C,R12*%
X62064900Y-105589900D03*
X62064900Y-115749900D03*
%TO.C,R11*%
X65874900Y-90349900D03*
%TO.C,R6*%
X65874900Y-94159900D03*
%TO.C,R5*%
X65874900Y-97969900D03*
%TO.C,R4*%
X65874900Y-101779900D03*
%TO.C,R13*%
X65874900Y-110669900D03*
%TO.C,R14*%
X65874900Y-114479900D03*
%TO.C,R15*%
X65874900Y-118289900D03*
%TO.C,R20*%
X65919800Y-122175901D03*
%TO.C,R11*%
X76034900Y-90349900D03*
%TO.C,R6*%
X76034900Y-94159900D03*
%TO.C,R5*%
X76034900Y-97969900D03*
%TO.C,R4*%
X76034900Y-101779900D03*
%TO.C,R13*%
X76034900Y-110669900D03*
%TO.C,R14*%
X76034900Y-114479900D03*
%TO.C,R15*%
X76034900Y-118289900D03*
%TO.C,R20*%
X76079800Y-122175901D03*
%TO.C,R10*%
X79844900Y-90349900D03*
%TO.C,R8*%
X79844900Y-94159900D03*
%TO.C,R9*%
X79844900Y-97949900D03*
%TO.C,R7*%
X79844900Y-101779900D03*
%TO.C,R18*%
X79844900Y-110669900D03*
%TO.C,R16*%
X79844900Y-114479900D03*
%TO.C,R17*%
X79844900Y-118289900D03*
%TO.C,R19*%
X79844900Y-122099900D03*
%TO.C,R10*%
X90004900Y-90349900D03*
%TO.C,R8*%
X90004900Y-94159900D03*
%TO.C,R9*%
X90004900Y-97949900D03*
%TO.C,R7*%
X90004900Y-101779900D03*
%TO.C,R18*%
X90004900Y-110669900D03*
%TO.C,R16*%
X90004900Y-114479900D03*
%TO.C,R17*%
X90004900Y-118289900D03*
%TO.C,R19*%
X90004900Y-122099900D03*
%TO.C,R1*%
X147154900Y-92889900D03*
%TO.C,R2*%
X147154900Y-110669900D03*
%TO.C,R1*%
X157314900Y-92889900D03*
%TO.C,R2*%
X157314900Y-110669900D03*
%TO.C,R28*%
X215734900Y-90349900D03*
%TO.C,R26*%
X215734900Y-94159900D03*
%TO.C,R25*%
X215734900Y-97969900D03*
%TO.C,R34*%
X215734900Y-110034900D03*
%TO.C,R36*%
X215734900Y-113864900D03*
%TO.C,R37*%
X215734900Y-118269900D03*
%TO.C,R35*%
X215734900Y-122099900D03*
%TO.C,R27*%
X215819900Y-101739900D03*
%TO.C,R28*%
X225894900Y-90349900D03*
%TO.C,R26*%
X225894900Y-94159900D03*
%TO.C,R25*%
X225894900Y-97969900D03*
%TO.C,R34*%
X225894900Y-110034900D03*
%TO.C,R36*%
X225894900Y-113864900D03*
%TO.C,R37*%
X225894900Y-118269900D03*
%TO.C,R35*%
X225894900Y-122099900D03*
%TO.C,R27*%
X225979900Y-101739900D03*
%TO.C,R29*%
X229704900Y-90349900D03*
%TO.C,R24*%
X229704900Y-94159900D03*
%TO.C,R23*%
X229704900Y-97969900D03*
%TO.C,R22*%
X229704900Y-101779900D03*
%TO.C,R31*%
X229704900Y-110669900D03*
%TO.C,R32*%
X229704900Y-114479900D03*
%TO.C,R33*%
X229704900Y-118289900D03*
%TO.C,R38*%
X229704900Y-122099900D03*
%TO.C,R29*%
X239864900Y-90349900D03*
%TO.C,R24*%
X239864900Y-94159900D03*
%TO.C,R23*%
X239864900Y-97969900D03*
%TO.C,R22*%
X239864900Y-101779900D03*
%TO.C,R31*%
X239864900Y-110669900D03*
%TO.C,R32*%
X239864900Y-114479900D03*
%TO.C,R33*%
X239864900Y-118289900D03*
%TO.C,R38*%
X239864900Y-122099900D03*
%TO.C,R30*%
X243674900Y-104319900D03*
X243674900Y-114479900D03*
%TO.C,R21*%
X247484900Y-96699900D03*
X247484900Y-106859900D03*
D13*
%TO.C,J9*%
X58254900Y-72569900D03*
%TO.C,J6*%
X58254900Y-77649900D03*
%TO.C,J5*%
X58254900Y-82729900D03*
%TO.C,J4*%
X58254900Y-87809900D03*
%TO.C,J3*%
X58254900Y-92889900D03*
%TO.C,J10*%
X58254900Y-119549900D03*
%TO.C,J12*%
X58254900Y-129719900D03*
%TO.C,J13*%
X58254900Y-134799900D03*
%TO.C,J16*%
X58254900Y-139879900D03*
%TO.C,J11*%
X58294900Y-124639900D03*
%TO.C,J9*%
X60754900Y-72569900D03*
%TO.C,J6*%
X60754900Y-77649900D03*
%TO.C,J5*%
X60754900Y-82729900D03*
%TO.C,J4*%
X60754900Y-87809900D03*
%TO.C,J3*%
X60754900Y-92889900D03*
%TO.C,J10*%
X60754900Y-119549900D03*
%TO.C,J12*%
X60754900Y-129719900D03*
%TO.C,J13*%
X60754900Y-134799900D03*
%TO.C,J16*%
X60754900Y-139879900D03*
%TO.C,J11*%
X60794900Y-124639900D03*
%TO.C,J25*%
X244904900Y-124639900D03*
%TO.C,J27*%
X244904900Y-134799900D03*
%TO.C,J30*%
X244904900Y-139879900D03*
%TO.C,J20*%
X244944900Y-77649900D03*
%TO.C,J18*%
X244944900Y-87809900D03*
%TO.C,J17*%
X244944900Y-92889900D03*
%TO.C,J24*%
X244944900Y-119559900D03*
%TO.C,J26*%
X244944900Y-129719900D03*
%TO.C,J23*%
X244984900Y-72569900D03*
%TO.C,J19*%
X245024900Y-82729900D03*
%TO.C,J25*%
X247404900Y-124639900D03*
%TO.C,J27*%
X247404900Y-134799900D03*
%TO.C,J30*%
X247404900Y-139879900D03*
%TO.C,J20*%
X247444900Y-77649900D03*
%TO.C,J18*%
X247444900Y-87809900D03*
%TO.C,J17*%
X247444900Y-92889900D03*
%TO.C,J24*%
X247444900Y-119559900D03*
%TO.C,J26*%
X247444900Y-129719900D03*
%TO.C,J23*%
X247484900Y-72569900D03*
%TO.C,J19*%
X247524900Y-82729900D03*
%TD*%
D14*
X144614900Y-99239900D03*
X152234900Y-73839900D03*
D15*
%TO.C,U3*%
X106514900Y-82729900D03*
X106514900Y-85269900D03*
X106514900Y-87809900D03*
X106514900Y-90349900D03*
X106514900Y-92889900D03*
X106514900Y-95429900D03*
X106514900Y-97969900D03*
X106514900Y-100509900D03*
X106514900Y-103049900D03*
X106514900Y-105589900D03*
X106514900Y-108129900D03*
X106514900Y-110669900D03*
X106514900Y-113209900D03*
X106514900Y-115749900D03*
X106514900Y-118289900D03*
X106514900Y-120829900D03*
X106514900Y-123369900D03*
X106514900Y-125909900D03*
X106514900Y-128449900D03*
X106514900Y-130989900D03*
X115989000Y-112459900D03*
X118529000Y-112459900D03*
X121069000Y-112459900D03*
X124294900Y-82729900D03*
X124294900Y-85269900D03*
X124294900Y-87809900D03*
X124294900Y-90349900D03*
X124294900Y-92889900D03*
X124294900Y-95429900D03*
X124294900Y-97969900D03*
X124294900Y-100509900D03*
X124294900Y-103049900D03*
X124294900Y-105589900D03*
X124294900Y-108129900D03*
X124294900Y-110669900D03*
X124294900Y-113209900D03*
X124294900Y-115749900D03*
X124294900Y-118289900D03*
X124294900Y-120829900D03*
X124294900Y-123369900D03*
X124294900Y-125909900D03*
X124294900Y-128449900D03*
X124294900Y-130989900D03*
%TO.C,U4*%
X180174900Y-82729900D03*
X180174900Y-85269900D03*
X180174900Y-87809900D03*
X180174900Y-90349900D03*
X180174900Y-92889900D03*
X180174900Y-95429900D03*
X180174900Y-97969900D03*
X180174900Y-100509900D03*
X180174900Y-103049900D03*
X180174900Y-105589900D03*
X180174900Y-108129900D03*
X180174900Y-110669900D03*
X180174900Y-113209900D03*
X180174900Y-115749900D03*
X180174900Y-118289900D03*
X180174900Y-120829900D03*
X180174900Y-123369900D03*
X180174900Y-125909900D03*
X180174900Y-128449900D03*
X180174900Y-130989900D03*
X183400800Y-101259900D03*
X185940800Y-101259900D03*
X188480800Y-101259900D03*
X197954900Y-82729900D03*
X197954900Y-85269900D03*
X197954900Y-87809900D03*
X197954900Y-90349900D03*
X197954900Y-92889900D03*
X197954900Y-95429900D03*
X197954900Y-97969900D03*
X197954900Y-100509900D03*
X197954900Y-103049900D03*
X197954900Y-105589900D03*
X197954900Y-108129900D03*
X197954900Y-110669900D03*
X197954900Y-113209900D03*
X197954900Y-115749900D03*
X197954900Y-118289900D03*
X197954900Y-120829900D03*
X197954900Y-123369900D03*
X197954900Y-125909900D03*
X197954900Y-128449900D03*
X197954900Y-130989900D03*
D16*
%TO.C,D1*%
X105244900Y-77809900D03*
%TO.C,D3*%
X105244900Y-135909900D03*
%TO.C,D1*%
X112864900Y-77809900D03*
%TO.C,D3*%
X112864900Y-135909900D03*
%TO.C,D2*%
X117309900Y-74474900D03*
%TO.C,D4*%
X117944900Y-138609900D03*
%TO.C,D2*%
X124929900Y-74474900D03*
%TO.C,D4*%
X125564900Y-138609900D03*
%TO.C,D6*%
X178904900Y-77809900D03*
%TO.C,D8*%
X178904900Y-135989900D03*
%TO.C,D6*%
X186524900Y-77809900D03*
%TO.C,D8*%
X186524900Y-135989900D03*
%TO.C,D5*%
X191604900Y-74949900D03*
%TO.C,D7*%
X191604900Y-138529900D03*
%TO.C,D5*%
X199224900Y-74949900D03*
%TO.C,D7*%
X199224900Y-138529900D03*
D17*
%TO.C,U1*%
X132581400Y-93112400D03*
X132581400Y-110257400D03*
%TO.C,U2*%
X132581400Y-119782400D03*
X132581400Y-136927400D03*
%TO.C,U1*%
X172078400Y-93112400D03*
X172078400Y-110257400D03*
%TO.C,U2*%
X172078400Y-119782400D03*
X172078400Y-136927400D03*
D18*
%TO.C,J7*%
X69749999Y-85487899D03*
%TO.C,J14*%
X69894900Y-126961901D03*
%TO.C,J7*%
X76950000Y-85487899D03*
%TO.C,J14*%
X77094901Y-126961901D03*
%TO.C,J8*%
X89109999Y-85487899D03*
%TO.C,J15*%
X90049800Y-126961901D03*
%TO.C,J8*%
X96310000Y-85487899D03*
%TO.C,J15*%
X97249801Y-126961901D03*
%TO.C,J2*%
X134829999Y-85487899D03*
X142030000Y-85487899D03*
%TO.C,J1*%
X161499999Y-85487899D03*
X168700000Y-85487899D03*
%TO.C,J29*%
X208159800Y-126961901D03*
%TO.C,J22*%
X208489999Y-85487899D03*
%TO.C,J29*%
X215359801Y-126961901D03*
%TO.C,J22*%
X215690000Y-85487899D03*
%TO.C,J28*%
X228644900Y-126961901D03*
%TO.C,J21*%
X228809999Y-85487899D03*
%TO.C,J28*%
X235844901Y-126961901D03*
%TO.C,J21*%
X236010000Y-85487899D03*
D19*
%TO.C,U1*%
X137343900Y-93810900D03*
%TO.C,U2*%
X137343900Y-120480900D03*
%TO.C,U1*%
X167315900Y-109558900D03*
%TO.C,U2*%
X167315900Y-136228900D03*
M02*
