%TF.GenerationSoftware,KiCad,Pcbnew,8.0.0*%
%TF.CreationDate,2024-03-12T20:28:27+02:00*%
%TF.ProjectId,fake-platka,66616b65-2d70-46c6-9174-6b612e6b6963,rev?*%
%TF.SameCoordinates,Original*%
%TF.FileFunction,Copper,L2,Bot*%
%TF.FilePolarity,Positive*%
%FSLAX46Y46*%
G04 Gerber Fmt 4.6, Leading zero omitted, Abs format (unit mm)*
G04 Created by KiCad (PCBNEW 8.0.0) date 2024-03-12 20:28:27*
%MOMM*%
%LPD*%
G01*
G04 APERTURE LIST*
%TA.AperFunction,ComponentPad*%
%ADD10R,2.200000X2.200000*%
%TD*%
%TA.AperFunction,ComponentPad*%
%ADD11O,2.200000X2.200000*%
%TD*%
%TA.AperFunction,ComponentPad*%
%ADD12C,1.397000*%
%TD*%
%TA.AperFunction,ComponentPad*%
%ADD13C,1.600000*%
%TD*%
%TA.AperFunction,ComponentPad*%
%ADD14O,1.600000X1.600000*%
%TD*%
%TA.AperFunction,ComponentPad*%
%ADD15C,3.200400*%
%TD*%
%TA.AperFunction,ComponentPad*%
%ADD16O,1.700000X1.700000*%
%TD*%
%TA.AperFunction,ComponentPad*%
%ADD17R,1.700000X1.700000*%
%TD*%
%TA.AperFunction,ComponentPad*%
%ADD18C,4.048000*%
%TD*%
%TA.AperFunction,ComponentPad*%
%ADD19R,3.000000X3.000000*%
%TD*%
%TA.AperFunction,ViaPad*%
%ADD20C,2.540000*%
%TD*%
%TA.AperFunction,ViaPad*%
%ADD21C,0.635000*%
%TD*%
%TA.AperFunction,ViaPad*%
%ADD22C,0.800000*%
%TD*%
%TA.AperFunction,Conductor*%
%ADD23C,3.302000*%
%TD*%
%TA.AperFunction,Conductor*%
%ADD24C,0.635000*%
%TD*%
%TA.AperFunction,Conductor*%
%ADD25C,0.250000*%
%TD*%
G04 APERTURE END LIST*
D10*
%TO.P,D5,1,K*%
%TO.N,/Leg Back Left/12V*%
X191604900Y-74949900D03*
D11*
%TO.P,D5,2,A*%
%TO.N,Net-(D5-Pad2)*%
X199224900Y-74949900D03*
%TD*%
D12*
%TO.P,J12,1,1*%
%TO.N,Net-(R14-Pad1)*%
X58254900Y-129719900D03*
%TO.P,J12,2,2*%
%TO.N,/Leg Back Left/12V*%
X60754900Y-129719900D03*
%TD*%
D13*
%TO.P,R21,1*%
%TO.N,/Leg Front Right/FR_F_EB*%
X247484900Y-96699900D03*
D14*
%TO.P,R21,2*%
%TO.N,/Left Controller /GND3V3*%
X247484900Y-106859900D03*
%TD*%
D15*
%TO.P,J21,1,1*%
%TO.N,Net-(J21-Pad1)*%
X236010000Y-85487899D03*
%TO.P,J21,2,2*%
%TO.N,Net-(J21-Pad2)*%
X228809999Y-85487899D03*
%TD*%
D16*
%TO.P,U3,1,UART0_TX/I2C0_SDA/SPI0_RX/GP0*%
%TO.N,/Left Controller /FL_F_IN1*%
X106514900Y-82729900D03*
%TO.P,U3,2,UART0_RX/I2C0_SCL/GPI0_CSn/GP1*%
%TO.N,/Left Controller /FL_F_IN2*%
X106514900Y-85269900D03*
D17*
%TO.P,U3,3,GND*%
%TO.N,unconnected-(U3-Pad3)*%
X106514900Y-87809900D03*
D16*
%TO.P,U3,4,I2C1_SDA/SPI0_SCK/GP2*%
%TO.N,/Left Controller /FL_K_IN1*%
X106514900Y-90349900D03*
%TO.P,U3,5,I2C1_SCL/SPI0_TX/GP3*%
%TO.N,/Left Controller /FL_K_IN2*%
X106514900Y-92889900D03*
%TO.P,U3,6,UART1_TX/I2C0_SDA/SPI0_RX/GP4*%
%TO.N,/Left Controller /BL_F_IN1*%
X106514900Y-95429900D03*
%TO.P,U3,7,UART1_RX/I2C0_SCL/SPI0_CSn/GP5*%
%TO.N,/Left Controller /BL_F_IN2*%
X106514900Y-97969900D03*
D17*
%TO.P,U3,8,GND*%
%TO.N,unconnected-(U3-Pad8)*%
X106514900Y-100509900D03*
D16*
%TO.P,U3,9,I2C1_SDA/SPI0_SCK/GP6*%
%TO.N,/Left Controller /BL_K_IN1*%
X106514900Y-103049900D03*
%TO.P,U3,10,I2C1_SCL/SPI0_TX/GP7*%
%TO.N,/Left Controller /BL_K_IN2*%
X106514900Y-105589900D03*
%TO.P,U3,11,UART1_TX/I2C0_SDA/SPI1_RX/GP8*%
%TO.N,/Left Controller /FL_F_EA*%
X106514900Y-108129900D03*
%TO.P,U3,12,UART1_RX/I2C0_SCL/SPI1_CSn/GP9*%
%TO.N,/Left Controller /FL_F_EB*%
X106514900Y-110669900D03*
D17*
%TO.P,U3,13,GND*%
%TO.N,unconnected-(U3-Pad13)*%
X106514900Y-113209900D03*
D16*
%TO.P,U3,14,I2C1_SDA/SPI1_SCK/GP10*%
%TO.N,/Left Controller /FL_K_EA*%
X106514900Y-115749900D03*
%TO.P,U3,15,I2C1_SCL/SPI1_TX/GP11*%
%TO.N,/Left Controller /FL_K_EB*%
X106514900Y-118289900D03*
%TO.P,U3,16,UART0_TX/I2C0_SDA/GPI1_RX/GP12*%
%TO.N,/Left Controller /BL_F_EA*%
X106514900Y-120829900D03*
%TO.P,U3,17,UART0_RX/I2C0_SCL/SPI1_CSn/GP13*%
%TO.N,/Left Controller /BL_F_EB*%
X106514900Y-123369900D03*
D17*
%TO.P,U3,18,GND*%
%TO.N,unconnected-(U3-Pad18)*%
X106514900Y-125909900D03*
D16*
%TO.P,U3,19,I2C1_SDA/SPI1_SCK/GP14*%
%TO.N,/Left Controller /BL_K_EA*%
X106514900Y-128449900D03*
%TO.P,U3,20,I2C1_SCL/SPI1_TX/GP15*%
%TO.N,/Left Controller /BL_K_EB*%
X106514900Y-130989900D03*
%TO.P,U3,21,UART0_TX/I2C0_SDA/SPI0_RX/GP16*%
%TO.N,unconnected-(U3-Pad21)*%
X124294900Y-130989900D03*
%TO.P,U3,22,UART0_RX/I2C0_SCL/SPI0_CSn/GP17*%
%TO.N,unconnected-(U3-Pad22)*%
X124294900Y-128449900D03*
D17*
%TO.P,U3,23,GND*%
%TO.N,unconnected-(U3-Pad23)*%
X124294900Y-125909900D03*
D16*
%TO.P,U3,24,I2C1_SDA/SPI0_SCK/GP18*%
%TO.N,unconnected-(U3-Pad24)*%
X124294900Y-123369900D03*
%TO.P,U3,25,I2C1_SCL/SPI0_TX/GP19*%
%TO.N,unconnected-(U3-Pad25)*%
X124294900Y-120829900D03*
%TO.P,U3,26,I2C0_SDA/GP20*%
%TO.N,unconnected-(U3-Pad26)*%
X124294900Y-118289900D03*
%TO.P,U3,27,I2C0_SCL/GP21*%
%TO.N,unconnected-(U3-Pad27)*%
X124294900Y-115749900D03*
D17*
%TO.P,U3,28,GND*%
%TO.N,unconnected-(U3-Pad28)*%
X124294900Y-113209900D03*
D16*
%TO.P,U3,29,GP22*%
%TO.N,unconnected-(U3-Pad29)*%
X124294900Y-110669900D03*
%TO.P,U3,30,RUN*%
%TO.N,unconnected-(U3-Pad30)*%
X124294900Y-108129900D03*
%TO.P,U3,31,I2C1_SDA/ADC0/GP26*%
%TO.N,unconnected-(U3-Pad31)*%
X124294900Y-105589900D03*
%TO.P,U3,32,I2C1_SCL/ADC1/GP27*%
%TO.N,unconnected-(U3-Pad32)*%
X124294900Y-103049900D03*
D17*
%TO.P,U3,33,AGND/GND*%
%TO.N,unconnected-(U3-Pad33)*%
X124294900Y-100509900D03*
D16*
%TO.P,U3,34,ADC2/GP28*%
%TO.N,unconnected-(U3-Pad34)*%
X124294900Y-97969900D03*
%TO.P,U3,35,ADC_VREF*%
%TO.N,unconnected-(U3-Pad35)*%
X124294900Y-95429900D03*
%TO.P,U3,36,3V3(OUT)*%
%TO.N,/Left Controller /3V3_VREF*%
X124294900Y-92889900D03*
%TO.P,U3,37,3V3_EN*%
%TO.N,unconnected-(U3-Pad37)*%
X124294900Y-90349900D03*
D17*
%TO.P,U3,38,GND*%
%TO.N,/Left Controller /GND3V3*%
X124294900Y-87809900D03*
D16*
%TO.P,U3,39,VSYS*%
%TO.N,/Left Controller /3V3*%
X124294900Y-85269900D03*
%TO.P,U3,40,VBUS*%
%TO.N,unconnected-(U3-Pad40)*%
X124294900Y-82729900D03*
%TO.P,U3,41*%
%TO.N,N/C*%
X115989000Y-112459900D03*
D17*
%TO.P,U3,42*%
X118529000Y-112459900D03*
D16*
%TO.P,U3,43*%
X121069000Y-112459900D03*
%TD*%
D12*
%TO.P,J5,1,1*%
%TO.N,Net-(J5-Pad1)*%
X58254900Y-82729900D03*
%TO.P,J5,2,2*%
%TO.N,/Leg Back Left/12V*%
X60754900Y-82729900D03*
%TD*%
D13*
%TO.P,R16,1*%
%TO.N,Net-(R16-Pad1)*%
X90004900Y-114479900D03*
D14*
%TO.P,R16,2*%
%TO.N,/Leg Back Left/12V*%
X79844900Y-114479900D03*
%TD*%
D13*
%TO.P,R27,1*%
%TO.N,Net-(R25-Pad1)*%
X215819900Y-101739900D03*
D14*
%TO.P,R27,2*%
%TO.N,/Leg Back Right/GND12V*%
X225979900Y-101739900D03*
%TD*%
D12*
%TO.P,J19,1,1*%
%TO.N,Net-(R23-Pad1)*%
X247524900Y-82729900D03*
%TO.P,J19,2,2*%
%TO.N,/Leg Back Right/GND12V*%
X245024900Y-82729900D03*
%TD*%
D15*
%TO.P,J7,1,1*%
%TO.N,Net-(J7-Pad1)*%
X76950000Y-85487899D03*
%TO.P,J7,2,2*%
%TO.N,Net-(J7-Pad2)*%
X69749999Y-85487899D03*
%TD*%
D13*
%TO.P,R29,1*%
%TO.N,/Leg Front Right/FR_K_EA*%
X239864900Y-90349900D03*
D14*
%TO.P,R29,2*%
%TO.N,/Left Controller /GND3V3*%
X229704900Y-90349900D03*
%TD*%
D13*
%TO.P,R4,1*%
%TO.N,/Left Controller /FL_F_EA*%
X65874900Y-101779900D03*
D14*
%TO.P,R4,2*%
%TO.N,/Left Controller /GND3V3*%
X76034900Y-101779900D03*
%TD*%
D13*
%TO.P,R7,1*%
%TO.N,Net-(R7-Pad1)*%
X90004900Y-101779900D03*
D14*
%TO.P,R7,2*%
%TO.N,/Leg Back Left/12V*%
X79844900Y-101779900D03*
%TD*%
D13*
%TO.P,R33,1*%
%TO.N,/Leg Back Right/BR_K_EB*%
X229704900Y-118289900D03*
D14*
%TO.P,R33,2*%
%TO.N,/Left Controller /GND3V3*%
X239864900Y-118289900D03*
%TD*%
D13*
%TO.P,R8,1*%
%TO.N,/Leg Back Left/12V*%
X79844900Y-94159900D03*
D14*
%TO.P,R8,2*%
%TO.N,Net-(R10-Pad2)*%
X90004900Y-94159900D03*
%TD*%
D15*
%TO.P,J2,1,1*%
%TO.N,Net-(J1-Pad1)*%
X142030000Y-85487899D03*
%TO.P,J2,2,2*%
%TO.N,Net-(J1-Pad2)*%
X134829999Y-85487899D03*
%TD*%
D13*
%TO.P,R18,1*%
%TO.N,Net-(R16-Pad1)*%
X90004900Y-110669900D03*
D14*
%TO.P,R18,2*%
%TO.N,/Leg Back Left/12V*%
X79844900Y-110669900D03*
%TD*%
D12*
%TO.P,J9,1,1*%
%TO.N,/Left Controller /3V3*%
X58254900Y-72569900D03*
%TO.P,J9,2,2*%
%TO.N,/Left Controller /FL_K_EA*%
X60754900Y-72569900D03*
%TD*%
D10*
%TO.P,D1,1,K*%
%TO.N,/Leg Back Left/12V*%
X112864900Y-77809900D03*
D11*
%TO.P,D1,2,A*%
%TO.N,Net-(D1-Pad2)*%
X105244900Y-77809900D03*
%TD*%
D15*
%TO.P,J22,1,1*%
%TO.N,Net-(J22-Pad1)*%
X215690000Y-85487899D03*
%TO.P,J22,2,2*%
%TO.N,Net-(J22-Pad2)*%
X208489999Y-85487899D03*
%TD*%
D10*
%TO.P,D2,1,K*%
%TO.N,/Leg Back Left/12V*%
X124929900Y-74474900D03*
D11*
%TO.P,D2,2,A*%
%TO.N,Net-(D2-Pad2)*%
X117309900Y-74474900D03*
%TD*%
D12*
%TO.P,J27,1,1*%
%TO.N,/Left Controller /3V3*%
X244904900Y-134799900D03*
%TO.P,J27,2,2*%
%TO.N,/Leg Back Right/BR_K_EB*%
X247404900Y-134799900D03*
%TD*%
D10*
%TO.P,D3,1,K*%
%TO.N,/Leg Back Left/12V*%
X112864900Y-135909900D03*
D11*
%TO.P,D3,2,A*%
%TO.N,Net-(D3-Pad2)*%
X105244900Y-135909900D03*
%TD*%
D12*
%TO.P,J16,1,1*%
%TO.N,/Left Controller /3V3*%
X58254900Y-139879900D03*
%TO.P,J16,2,2*%
%TO.N,/Left Controller /BL_K_EA*%
X60754900Y-139879900D03*
%TD*%
D13*
%TO.P,R38,1*%
%TO.N,/Leg Back Right/BR_K_EA*%
X229704900Y-122099900D03*
D14*
%TO.P,R38,2*%
%TO.N,/Left Controller /GND3V3*%
X239864900Y-122099900D03*
%TD*%
D13*
%TO.P,R13,1*%
%TO.N,/Left Controller /BL_F_EA*%
X65874900Y-110669900D03*
D14*
%TO.P,R13,2*%
%TO.N,/Left Controller /GND3V3*%
X76034900Y-110669900D03*
%TD*%
D16*
%TO.P,U4,1,UART0_TX/I2C0_SDA/SPI0_RX/GP0*%
%TO.N,/Leg Front Right/FR_F_IN1*%
X197954900Y-130989900D03*
%TO.P,U4,2,UART0_RX/I2C0_SCL/GPI0_CSn/GP1*%
%TO.N,/Leg Front Right/FR_F_IN2*%
X197954900Y-128449900D03*
D17*
%TO.P,U4,3,GND*%
%TO.N,unconnected-(U4-Pad3)*%
X197954900Y-125909900D03*
D16*
%TO.P,U4,4,I2C1_SDA/SPI0_SCK/GP2*%
%TO.N,/Leg Front Right/FR_K_IN1*%
X197954900Y-123369900D03*
%TO.P,U4,5,I2C1_SCL/SPI0_TX/GP3*%
%TO.N,/Leg Front Right/FR_K_IN2*%
X197954900Y-120829900D03*
%TO.P,U4,6,UART1_TX/I2C0_SDA/SPI0_RX/GP4*%
%TO.N,/Leg Back Right/BR_F_IN1*%
X197954900Y-118289900D03*
%TO.P,U4,7,UART1_RX/I2C0_SCL/SPI0_CSn/GP5*%
%TO.N,/Leg Back Right/BR_F_IN2*%
X197954900Y-115749900D03*
D17*
%TO.P,U4,8,GND*%
%TO.N,unconnected-(U4-Pad8)*%
X197954900Y-113209900D03*
D16*
%TO.P,U4,9,I2C1_SDA/SPI0_SCK/GP6*%
%TO.N,/Leg Back Right/BR_K_IN1*%
X197954900Y-110669900D03*
%TO.P,U4,10,I2C1_SCL/SPI0_TX/GP7*%
%TO.N,/Leg Back Right/BR_K_IN2*%
X197954900Y-108129900D03*
%TO.P,U4,11,UART1_TX/I2C0_SDA/SPI1_RX/GP8*%
%TO.N,/Leg Front Right/FR_F_EA*%
X197954900Y-105589900D03*
%TO.P,U4,12,UART1_RX/I2C0_SCL/SPI1_CSn/GP9*%
%TO.N,/Leg Front Right/FR_F_EB*%
X197954900Y-103049900D03*
D17*
%TO.P,U4,13,GND*%
%TO.N,unconnected-(U4-Pad13)*%
X197954900Y-100509900D03*
D16*
%TO.P,U4,14,I2C1_SDA/SPI1_SCK/GP10*%
%TO.N,/Leg Front Right/FR_K_EA*%
X197954900Y-97969900D03*
%TO.P,U4,15,I2C1_SCL/SPI1_TX/GP11*%
%TO.N,/Leg Front Right/FR_K_EB*%
X197954900Y-95429900D03*
%TO.P,U4,16,UART0_TX/I2C0_SDA/GPI1_RX/GP12*%
%TO.N,/Leg Back Right/BR_F_EA*%
X197954900Y-92889900D03*
%TO.P,U4,17,UART0_RX/I2C0_SCL/SPI1_CSn/GP13*%
%TO.N,/Leg Back Right/BR_F_EB*%
X197954900Y-90349900D03*
D17*
%TO.P,U4,18,GND*%
%TO.N,unconnected-(U4-Pad18)*%
X197954900Y-87809900D03*
D16*
%TO.P,U4,19,I2C1_SDA/SPI1_SCK/GP14*%
%TO.N,/Leg Back Right/BR_K_EA*%
X197954900Y-85269900D03*
%TO.P,U4,20,I2C1_SCL/SPI1_TX/GP15*%
%TO.N,/Leg Back Right/BR_K_EB*%
X197954900Y-82729900D03*
%TO.P,U4,21,UART0_TX/I2C0_SDA/SPI0_RX/GP16*%
%TO.N,unconnected-(U4-Pad21)*%
X180174900Y-82729900D03*
%TO.P,U4,22,UART0_RX/I2C0_SCL/SPI0_CSn/GP17*%
%TO.N,unconnected-(U4-Pad22)*%
X180174900Y-85269900D03*
D17*
%TO.P,U4,23,GND*%
%TO.N,unconnected-(U4-Pad23)*%
X180174900Y-87809900D03*
D16*
%TO.P,U4,24,I2C1_SDA/SPI0_SCK/GP18*%
%TO.N,unconnected-(U4-Pad24)*%
X180174900Y-90349900D03*
%TO.P,U4,25,I2C1_SCL/SPI0_TX/GP19*%
%TO.N,unconnected-(U4-Pad25)*%
X180174900Y-92889900D03*
%TO.P,U4,26,I2C0_SDA/GP20*%
%TO.N,unconnected-(U4-Pad26)*%
X180174900Y-95429900D03*
%TO.P,U4,27,I2C0_SCL/GP21*%
%TO.N,unconnected-(U4-Pad27)*%
X180174900Y-97969900D03*
D17*
%TO.P,U4,28,GND*%
%TO.N,unconnected-(U4-Pad28)*%
X180174900Y-100509900D03*
D16*
%TO.P,U4,29,GP22*%
%TO.N,unconnected-(U4-Pad29)*%
X180174900Y-103049900D03*
%TO.P,U4,30,RUN*%
%TO.N,unconnected-(U4-Pad30)*%
X180174900Y-105589900D03*
%TO.P,U4,31,I2C1_SDA/ADC0/GP26*%
%TO.N,unconnected-(U4-Pad31)*%
X180174900Y-108129900D03*
%TO.P,U4,32,I2C1_SCL/ADC1/GP27*%
%TO.N,unconnected-(U4-Pad32)*%
X180174900Y-110669900D03*
D17*
%TO.P,U4,33,AGND/GND*%
%TO.N,unconnected-(U4-Pad33)*%
X180174900Y-113209900D03*
D16*
%TO.P,U4,34,ADC2/GP28*%
%TO.N,unconnected-(U4-Pad34)*%
X180174900Y-115749900D03*
%TO.P,U4,35,ADC_VREF*%
%TO.N,unconnected-(U4-Pad35)*%
X180174900Y-118289900D03*
%TO.P,U4,36,3V3(OUT)*%
%TO.N,/Leg Back Right/BR_F_VREF*%
X180174900Y-120829900D03*
%TO.P,U4,37,3V3_EN*%
%TO.N,unconnected-(U4-Pad37)*%
X180174900Y-123369900D03*
D17*
%TO.P,U4,38,GND*%
%TO.N,/Left Controller /GND3V3*%
X180174900Y-125909900D03*
D16*
%TO.P,U4,39,VSYS*%
%TO.N,/Left Controller /3V3*%
X180174900Y-128449900D03*
%TO.P,U4,40,VBUS*%
%TO.N,unconnected-(U4-Pad40)*%
X180174900Y-130989900D03*
%TO.P,U4,41*%
%TO.N,N/C*%
X188480800Y-101259900D03*
D17*
%TO.P,U4,42*%
X185940800Y-101259900D03*
D16*
%TO.P,U4,43*%
X183400800Y-101259900D03*
%TD*%
D10*
%TO.P,D4,1,K*%
%TO.N,/Leg Back Left/12V*%
X125564900Y-138609900D03*
D11*
%TO.P,D4,2,A*%
%TO.N,Net-(D4-Pad2)*%
X117944900Y-138609900D03*
%TD*%
D13*
%TO.P,R12,1*%
%TO.N,/Left Controller /BL_F_EB*%
X62064900Y-115749900D03*
D14*
%TO.P,R12,2*%
%TO.N,/Left Controller /GND3V3*%
X62064900Y-105589900D03*
%TD*%
D13*
%TO.P,R1,1*%
%TO.N,Net-(J1-Pad2)*%
X147154900Y-92889900D03*
D14*
%TO.P,R1,2*%
%TO.N,/Leg Back Left/12V*%
X157314900Y-92889900D03*
%TD*%
D18*
%TO.P,U2,*%
%TO.N,*%
X137343900Y-120480900D03*
X167315900Y-136228900D03*
D19*
%TO.P,U2,1,IN+*%
%TO.N,/Leg Back Left/12V*%
X132581400Y-119782400D03*
%TO.P,U2,2,IN-*%
%TO.N,/Leg Back Right/GND12V*%
X132581400Y-136927400D03*
%TO.P,U2,3,OUT+*%
%TO.N,/Left Controller /3V3*%
X172078400Y-119782400D03*
%TO.P,U2,4,OUT-*%
%TO.N,/Left Controller /GND3V3*%
X172078400Y-136927400D03*
%TD*%
D13*
%TO.P,R10,1*%
%TO.N,/Leg Back Left/12V*%
X79844900Y-90349900D03*
D14*
%TO.P,R10,2*%
%TO.N,Net-(R10-Pad2)*%
X90004900Y-90349900D03*
%TD*%
D13*
%TO.P,R22,1*%
%TO.N,/Leg Front Right/FR_F_EA*%
X239864900Y-101779900D03*
D14*
%TO.P,R22,2*%
%TO.N,/Left Controller /GND3V3*%
X229704900Y-101779900D03*
%TD*%
D13*
%TO.P,R34,1*%
%TO.N,Net-(R34-Pad1)*%
X215734900Y-110034900D03*
D14*
%TO.P,R34,2*%
%TO.N,/Leg Back Right/GND12V*%
X225894900Y-110034900D03*
%TD*%
D12*
%TO.P,J10,1,1*%
%TO.N,/Left Controller /3V3*%
X58254900Y-119549900D03*
%TO.P,J10,2,2*%
%TO.N,/Left Controller /BL_F_EB*%
X60754900Y-119549900D03*
%TD*%
D13*
%TO.P,R6,1*%
%TO.N,/Left Controller /FL_K_EB*%
X65874900Y-94159900D03*
D14*
%TO.P,R6,2*%
%TO.N,/Left Controller /GND3V3*%
X76034900Y-94159900D03*
%TD*%
D13*
%TO.P,R24,1*%
%TO.N,/Leg Front Right/FR_K_EB*%
X239864900Y-94159900D03*
D14*
%TO.P,R24,2*%
%TO.N,/Left Controller /GND3V3*%
X229704900Y-94159900D03*
%TD*%
D13*
%TO.P,R17,1*%
%TO.N,/Leg Back Left/12V*%
X79844900Y-118289900D03*
D14*
%TO.P,R17,2*%
%TO.N,Net-(R17-Pad2)*%
X90004900Y-118289900D03*
%TD*%
D13*
%TO.P,R31,1*%
%TO.N,/Leg Back Right/BR_F_EA*%
X229704900Y-110669900D03*
D14*
%TO.P,R31,2*%
%TO.N,/Left Controller /GND3V3*%
X239864900Y-110669900D03*
%TD*%
D12*
%TO.P,J25,1,1*%
%TO.N,/Left Controller /3V3*%
X244904900Y-124639900D03*
%TO.P,J25,2,2*%
%TO.N,/Leg Back Right/BR_F_EA*%
X247404900Y-124639900D03*
%TD*%
D13*
%TO.P,R25,1*%
%TO.N,Net-(R25-Pad1)*%
X215734900Y-97969900D03*
D14*
%TO.P,R25,2*%
%TO.N,/Leg Back Right/GND12V*%
X225894900Y-97969900D03*
%TD*%
D13*
%TO.P,R20,1*%
%TO.N,/Left Controller /BL_K_EA*%
X65919800Y-122175901D03*
D14*
%TO.P,R20,2*%
%TO.N,/Left Controller /GND3V3*%
X76079800Y-122175901D03*
%TD*%
D13*
%TO.P,R26,1*%
%TO.N,/Leg Back Right/GND12V*%
X225894900Y-94159900D03*
D14*
%TO.P,R26,2*%
%TO.N,Net-(R26-Pad2)*%
X215734900Y-94159900D03*
%TD*%
D13*
%TO.P,R14,1*%
%TO.N,Net-(R14-Pad1)*%
X65874900Y-114479900D03*
D14*
%TO.P,R14,2*%
%TO.N,/Leg Back Left/12V*%
X76034900Y-114479900D03*
%TD*%
D15*
%TO.P,J8,1,1*%
%TO.N,Net-(J8-Pad1)*%
X96310000Y-85487899D03*
%TO.P,J8,2,2*%
%TO.N,Net-(J8-Pad2)*%
X89109999Y-85487899D03*
%TD*%
D10*
%TO.P,D6,1,K*%
%TO.N,/Leg Back Left/12V*%
X178904900Y-77809900D03*
D11*
%TO.P,D6,2,A*%
%TO.N,Net-(D6-Pad2)*%
X186524900Y-77809900D03*
%TD*%
D13*
%TO.P,R19,1*%
%TO.N,/Leg Back Left/12V*%
X79844900Y-122099900D03*
D14*
%TO.P,R19,2*%
%TO.N,Net-(R17-Pad2)*%
X90004900Y-122099900D03*
%TD*%
D12*
%TO.P,J23,1,1*%
%TO.N,/Left Controller /3V3*%
X247484900Y-72569900D03*
%TO.P,J23,2,2*%
%TO.N,/Leg Front Right/FR_K_EA*%
X244984900Y-72569900D03*
%TD*%
%TO.P,J6,1,1*%
%TO.N,/Left Controller /3V3*%
X58254900Y-77649900D03*
%TO.P,J6,2,2*%
%TO.N,/Left Controller /FL_K_EB*%
X60754900Y-77649900D03*
%TD*%
D13*
%TO.P,R35,1*%
%TO.N,/Leg Back Right/GND12V*%
X225894900Y-122099900D03*
D14*
%TO.P,R35,2*%
%TO.N,Net-(R35-Pad2)*%
X215734900Y-122099900D03*
%TD*%
D12*
%TO.P,J3,1,1*%
%TO.N,/Left Controller /3V3*%
X58254900Y-92889900D03*
%TO.P,J3,2,2*%
%TO.N,/Left Controller /FL_F_EB*%
X60754900Y-92889900D03*
%TD*%
D13*
%TO.P,R2,1*%
%TO.N,Net-(J1-Pad1)*%
X147154900Y-110669900D03*
D14*
%TO.P,R2,2*%
%TO.N,/Leg Back Right/GND12V*%
X157314900Y-110669900D03*
%TD*%
D13*
%TO.P,R11,1*%
%TO.N,/Left Controller /FL_K_EA*%
X65874900Y-90349900D03*
D14*
%TO.P,R11,2*%
%TO.N,/Left Controller /GND3V3*%
X76034900Y-90349900D03*
%TD*%
D15*
%TO.P,J29,1,1*%
%TO.N,Net-(J29-Pad1)*%
X208159800Y-126961901D03*
%TO.P,J29,2,2*%
%TO.N,Net-(J29-Pad2)*%
X215359801Y-126961901D03*
%TD*%
D12*
%TO.P,J17,1,1*%
%TO.N,/Left Controller /3V3*%
X247444900Y-92889900D03*
%TO.P,J17,2,2*%
%TO.N,/Leg Front Right/FR_F_EB*%
X244944900Y-92889900D03*
%TD*%
%TO.P,J20,1,1*%
%TO.N,/Left Controller /3V3*%
X247444900Y-77649900D03*
%TO.P,J20,2,2*%
%TO.N,/Leg Front Right/FR_K_EB*%
X244944900Y-77649900D03*
%TD*%
D18*
%TO.P,U1,*%
%TO.N,*%
X137343900Y-93810900D03*
X167315900Y-109558900D03*
D19*
%TO.P,U1,1,IN+*%
%TO.N,Net-(J1-Pad2)*%
X132581400Y-93112400D03*
%TO.P,U1,2,IN-*%
%TO.N,Net-(J1-Pad1)*%
X132581400Y-110257400D03*
%TO.P,U1,3,OUT+*%
%TO.N,/Leg Back Left/12V*%
X172078400Y-93112400D03*
%TO.P,U1,4,OUT-*%
%TO.N,/Leg Back Right/GND12V*%
X172078400Y-110257400D03*
%TD*%
D15*
%TO.P,J14,1,1*%
%TO.N,Net-(J14-Pad1)*%
X69894900Y-126961901D03*
%TO.P,J14,2,2*%
%TO.N,Net-(J14-Pad2)*%
X77094901Y-126961901D03*
%TD*%
D12*
%TO.P,J11,1,1*%
%TO.N,/Left Controller /3V3*%
X58294900Y-124639900D03*
%TO.P,J11,2,2*%
%TO.N,/Left Controller /BL_F_EA*%
X60794900Y-124639900D03*
%TD*%
D13*
%TO.P,R37,1*%
%TO.N,/Leg Back Right/GND12V*%
X225894900Y-118269900D03*
D14*
%TO.P,R37,2*%
%TO.N,Net-(R35-Pad2)*%
X215734900Y-118269900D03*
%TD*%
D13*
%TO.P,R30,1*%
%TO.N,/Leg Back Right/BR_F_EB*%
X243674900Y-114479900D03*
D14*
%TO.P,R30,2*%
%TO.N,/Left Controller /GND3V3*%
X243674900Y-104319900D03*
%TD*%
D13*
%TO.P,R23,1*%
%TO.N,Net-(R23-Pad1)*%
X239864900Y-97969900D03*
D14*
%TO.P,R23,2*%
%TO.N,/Leg Back Left/12V*%
X229704900Y-97969900D03*
%TD*%
D13*
%TO.P,R15,1*%
%TO.N,/Left Controller /BL_K_EB*%
X65874900Y-118289900D03*
D14*
%TO.P,R15,2*%
%TO.N,/Left Controller /GND3V3*%
X76034900Y-118289900D03*
%TD*%
D12*
%TO.P,J4,1,1*%
%TO.N,/Left Controller /3V3*%
X58254900Y-87809900D03*
%TO.P,J4,2,2*%
%TO.N,/Left Controller /FL_F_EA*%
X60754900Y-87809900D03*
%TD*%
D10*
%TO.P,D7,1,K*%
%TO.N,/Leg Back Left/12V*%
X191604900Y-138529900D03*
D11*
%TO.P,D7,2,A*%
%TO.N,Net-(D7-Pad2)*%
X199224900Y-138529900D03*
%TD*%
D15*
%TO.P,J15,1,1*%
%TO.N,Net-(J15-Pad1)*%
X90049800Y-126961901D03*
%TO.P,J15,2,2*%
%TO.N,Net-(J15-Pad2)*%
X97249801Y-126961901D03*
%TD*%
D10*
%TO.P,D8,1,K*%
%TO.N,/Leg Back Left/12V*%
X178904900Y-135989900D03*
D11*
%TO.P,D8,2,A*%
%TO.N,Net-(D8-Pad2)*%
X186524900Y-135989900D03*
%TD*%
D13*
%TO.P,R9,1*%
%TO.N,Net-(R7-Pad1)*%
X90004900Y-97949900D03*
D14*
%TO.P,R9,2*%
%TO.N,/Leg Back Left/12V*%
X79844900Y-97949900D03*
%TD*%
D12*
%TO.P,J30,1,1*%
%TO.N,/Left Controller /3V3*%
X244904900Y-139879900D03*
%TO.P,J30,2,2*%
%TO.N,/Leg Back Right/BR_K_EA*%
X247404900Y-139879900D03*
%TD*%
%TO.P,J18,1,1*%
%TO.N,/Left Controller /3V3*%
X247444900Y-87809900D03*
%TO.P,J18,2,2*%
%TO.N,/Leg Front Right/FR_F_EA*%
X244944900Y-87809900D03*
%TD*%
%TO.P,J13,1,1*%
%TO.N,/Left Controller /3V3*%
X58254900Y-134799900D03*
%TO.P,J13,2,2*%
%TO.N,/Left Controller /BL_K_EB*%
X60754900Y-134799900D03*
%TD*%
D15*
%TO.P,J1,1,1*%
%TO.N,Net-(J1-Pad1)*%
X168700000Y-85487899D03*
%TO.P,J1,2,2*%
%TO.N,Net-(J1-Pad2)*%
X161499999Y-85487899D03*
%TD*%
D13*
%TO.P,R36,1*%
%TO.N,Net-(R34-Pad1)*%
X215734900Y-113864900D03*
D14*
%TO.P,R36,2*%
%TO.N,/Leg Back Right/GND12V*%
X225894900Y-113864900D03*
%TD*%
D13*
%TO.P,R5,1*%
%TO.N,Net-(J5-Pad1)*%
X65874900Y-97969900D03*
D14*
%TO.P,R5,2*%
%TO.N,/Leg Back Left/12V*%
X76034900Y-97969900D03*
%TD*%
D13*
%TO.P,R3,1*%
%TO.N,/Left Controller /FL_F_EB*%
X58234900Y-96699900D03*
D14*
%TO.P,R3,2*%
%TO.N,/Left Controller /GND3V3*%
X58234900Y-106859900D03*
%TD*%
D13*
%TO.P,R32,1*%
%TO.N,Net-(J26-Pad1)*%
X229704900Y-114479900D03*
D14*
%TO.P,R32,2*%
%TO.N,/Leg Back Left/12V*%
X239864900Y-114479900D03*
%TD*%
D13*
%TO.P,R28,1*%
%TO.N,/Leg Back Right/GND12V*%
X225894900Y-90349900D03*
D14*
%TO.P,R28,2*%
%TO.N,Net-(R26-Pad2)*%
X215734900Y-90349900D03*
%TD*%
D12*
%TO.P,J26,1,1*%
%TO.N,Net-(J26-Pad1)*%
X244944900Y-129719900D03*
%TO.P,J26,2,2*%
%TO.N,/Leg Back Right/GND12V*%
X247444900Y-129719900D03*
%TD*%
%TO.P,J24,1,1*%
%TO.N,/Left Controller /3V3*%
X244944900Y-119559900D03*
%TO.P,J24,2,2*%
%TO.N,/Leg Back Right/BR_F_EB*%
X247444900Y-119559900D03*
%TD*%
D15*
%TO.P,J28,1,1*%
%TO.N,Net-(J28-Pad1)*%
X228644900Y-126961901D03*
%TO.P,J28,2,2*%
%TO.N,Net-(J28-Pad2)*%
X235844901Y-126961901D03*
%TD*%
D20*
%TO.N,Net-(J1-Pad1)*%
X152234900Y-73839900D03*
D21*
%TO.N,/Leg Back Left/12V*%
X78574900Y-107494900D03*
D20*
X144614900Y-99239900D03*
D21*
X72859900Y-90349900D03*
X96989900Y-114479900D03*
X72224900Y-132259900D03*
X96989900Y-96064900D03*
X230339900Y-77014900D03*
X96989900Y-122734900D03*
X102069900Y-125274900D03*
X96989900Y-104319900D03*
X70954900Y-81459900D03*
X96989900Y-106859900D03*
X77939900Y-92254900D03*
X82384900Y-131624900D03*
X235419900Y-98604900D03*
%TO.N,/Leg Back Right/GND12V*%
X187794900Y-140244400D03*
X176364900Y-137974900D03*
X218274900Y-135434900D03*
X199224900Y-135434900D03*
X204304900Y-90349900D03*
X204304900Y-117019900D03*
X204304900Y-108129900D03*
X204304900Y-99239900D03*
D22*
%TO.N,/Left Controller /3V3*%
X129374900Y-127179900D03*
X163664900Y-139244900D03*
X241769900Y-140514900D03*
X163029900Y-129719900D03*
X182714900Y-122734900D03*
%TO.N,/Left Controller /GND3V3*%
X120484900Y-140514900D03*
X163664900Y-141149900D03*
X171284900Y-129719900D03*
X234784900Y-102414900D03*
X74129900Y-125274900D03*
X240499900Y-138609900D03*
%TO.N,/Left Controller /FL_F_IN1*%
X100836300Y-99276300D03*
X101434900Y-85904900D03*
%TO.N,/Left Controller /FL_F_IN2*%
X100799900Y-100509900D03*
X102704900Y-87174900D03*
%TO.N,/Leg Back Right/BR_F_IN1*%
X203669900Y-111939900D03*
X199224900Y-117019900D03*
%TO.N,/Leg Back Right/BR_F_IN2*%
X203034900Y-110669900D03*
X199224900Y-114479900D03*
%TO.N,/Leg Back Right/BR_K_IN1*%
X196049900Y-120829900D03*
%TO.N,/Leg Back Right/BR_K_IN2*%
X194740400Y-117019900D03*
%TO.N,/Left Controller /BL_F_IN1*%
X100836300Y-109436300D03*
X102069900Y-96064900D03*
%TO.N,/Left Controller /BL_F_IN2*%
X102844594Y-100689094D03*
X100799900Y-111304900D03*
%TO.N,/Leg Back Right/BR_F_EA*%
X199859900Y-111939900D03*
X229069900Y-115749900D03*
X200534400Y-93483024D03*
%TO.N,/Leg Back Right/BR_F_EB*%
X201129900Y-92254900D03*
X201764900Y-110669900D03*
%TO.N,/Leg Back Right/BR_K_EA*%
X189064900Y-124639900D03*
X227016017Y-124793625D03*
X235419900Y-136069900D03*
%TO.N,/Leg Back Right/BR_K_EB*%
X234784900Y-131624900D03*
X185889900Y-120194900D03*
%TO.N,/Leg Back Right/BR_F_VREF*%
X207479900Y-113805400D03*
X187159900Y-130989900D03*
X206844900Y-95429900D03*
X206844900Y-104319900D03*
X202399900Y-132259900D03*
X204304900Y-122099900D03*
D21*
%TO.N,Net-(D5-Pad2)*%
X210019900Y-98604900D03*
X211924900Y-104319900D03*
X204304900Y-97969900D03*
D22*
%TO.N,/Left Controller /BL_K_IN1*%
X103339900Y-104954900D03*
X100799900Y-118289900D03*
%TO.N,/Left Controller /BL_K_IN2*%
X100799900Y-119559900D03*
X103974900Y-106859900D03*
%TO.N,/Left Controller /FL_F_EA*%
X68414900Y-107494900D03*
D21*
%TO.N,Net-(D4-Pad2)*%
X102069900Y-138609900D03*
X91909900Y-116384900D03*
%TO.N,Net-(J8-Pad2)*%
X86829900Y-90984900D03*
D22*
%TO.N,/Left Controller /FL_F_EB*%
X67144900Y-108129900D03*
D21*
%TO.N,Net-(J8-Pad1)*%
X91909900Y-95429900D03*
D22*
%TO.N,/Left Controller /FL_K_EA*%
X109689900Y-97334900D03*
%TO.N,/Left Controller /FL_K_EB*%
X69684900Y-106859900D03*
X110999400Y-103049900D03*
%TO.N,/Left Controller /BL_F_EA*%
X63334900Y-115114900D03*
X76669900Y-134125400D03*
X64604900Y-127814900D03*
X64604900Y-119520400D03*
X70319900Y-130354900D03*
%TO.N,/Left Controller /BL_K_EA*%
X96989900Y-130989900D03*
%TO.N,/Left Controller /BL_K_EB*%
X74169400Y-128449900D03*
X68414900Y-122734900D03*
X66470400Y-124639900D03*
%TO.N,/Left Controller /3V3_VREF*%
X100164900Y-117019900D03*
X100164900Y-108764900D03*
X100164900Y-98604900D03*
X100164900Y-90349900D03*
%TO.N,/Leg Front Right/FR_F_IN1*%
X195414900Y-131624900D03*
X196049900Y-105589900D03*
%TO.N,/Leg Front Right/FR_F_IN2*%
X195414900Y-129084900D03*
X194144900Y-124004900D03*
X192200400Y-123369900D03*
X196049900Y-103049900D03*
%TO.N,/Leg Front Right/FR_K_IN1*%
X189699900Y-116384900D03*
X196049900Y-97969900D03*
%TO.N,/Leg Front Right/FR_K_IN2*%
X195414900Y-94794900D03*
X188390400Y-113209900D03*
%TO.N,/Leg Front Right/FR_F_EB*%
X233006900Y-106605900D03*
X200494900Y-105589900D03*
%TO.N,/Leg Front Right/FR_K_EA*%
X237324900Y-95429900D03*
%TO.N,/Leg Front Right/FR_K_EB*%
X200494900Y-85904900D03*
X240499900Y-79554900D03*
D21*
%TO.N,Net-(D6-Pad2)*%
X211924900Y-95429900D03*
X204304900Y-81459900D03*
%TO.N,Net-(J22-Pad2)*%
X213194900Y-94159900D03*
%TO.N,Net-(J22-Pad1)*%
X211924900Y-90349900D03*
%TO.N,Net-(D1-Pad2)*%
X92544900Y-98604900D03*
%TO.N,Net-(J7-Pad2)*%
X83654900Y-99239900D03*
X81749900Y-92254900D03*
D22*
%TO.N,Net-(R7-Pad1)*%
X91768496Y-101286304D03*
D21*
%TO.N,Net-(J7-Pad1)*%
X86829900Y-101779900D03*
%TO.N,Net-(D2-Pad2)*%
X91909900Y-90349900D03*
X93814900Y-80189900D03*
D22*
%TO.N,Net-(R10-Pad2)*%
X91909900Y-93352900D03*
D21*
%TO.N,Net-(D3-Pad2)*%
X91909900Y-108764900D03*
X95084900Y-115114900D03*
X103339900Y-116384900D03*
%TO.N,Net-(J14-Pad2)*%
X86829900Y-110034900D03*
%TO.N,Net-(J14-Pad1)*%
X84924900Y-117019900D03*
%TO.N,Net-(J15-Pad2)*%
X91909900Y-118289900D03*
%TO.N,Net-(J21-Pad2)*%
X213194900Y-101779900D03*
%TO.N,Net-(J21-Pad1)*%
X214464900Y-89079900D03*
X211924900Y-99239900D03*
%TO.N,Net-(D7-Pad2)*%
X211924900Y-113209900D03*
%TO.N,Net-(J28-Pad2)*%
X218909900Y-128449900D03*
X213829900Y-113209900D03*
D22*
%TO.N,Net-(R34-Pad1)*%
X214606304Y-112433496D03*
D21*
%TO.N,Net-(J28-Pad1)*%
X219544900Y-111304900D03*
X220814900Y-127814900D03*
%TO.N,Net-(D8-Pad2)*%
X211924900Y-122099900D03*
X208749900Y-132259900D03*
%TO.N,Net-(J29-Pad2)*%
X213829900Y-121464900D03*
%TO.N,Net-(J29-Pad1)*%
X211924900Y-117019900D03*
D22*
%TO.N,Net-(J26-Pad1)*%
X239229900Y-129719900D03*
X235419900Y-117654900D03*
%TD*%
D23*
%TO.N,Net-(J1-Pad1)*%
X150964900Y-89079900D02*
X152234900Y-90349900D01*
X150964900Y-75109900D02*
X150964900Y-89079900D01*
X152234900Y-73839900D02*
X150964900Y-75109900D01*
X152234900Y-90349900D02*
X152234900Y-105589900D01*
X152234900Y-105589900D02*
X147154900Y-110669900D01*
X142030000Y-85487899D02*
X150964900Y-76552999D01*
X150964900Y-76552999D02*
X150964900Y-75109900D01*
D24*
%TO.N,/Leg Back Left/12V*%
X109689900Y-138609900D02*
X112389900Y-135909900D01*
X102704900Y-136704900D02*
X104609900Y-138609900D01*
X178744900Y-77809900D02*
X176364900Y-80189900D01*
X231289400Y-105894488D02*
X231289400Y-107317312D01*
X142074900Y-96699900D02*
X144614900Y-99239900D01*
X77919900Y-99854900D02*
X77939900Y-99854900D01*
X73494900Y-132894900D02*
X81114900Y-132894900D01*
X125564900Y-138609900D02*
X135089900Y-129084900D01*
X129374900Y-78919900D02*
X132549900Y-78919900D01*
X138899900Y-90349900D02*
X142074900Y-93524900D01*
X234149900Y-90984900D02*
X232244900Y-89079900D01*
X102069900Y-125274900D02*
X102704900Y-125909900D01*
X72224900Y-132259900D02*
X72859900Y-132259900D01*
X79844900Y-97949900D02*
X77939900Y-99854900D01*
X77939900Y-116384900D02*
X77939900Y-120194900D01*
X72859900Y-132259900D02*
X73494900Y-132894900D01*
X176364900Y-88825900D02*
X172078400Y-93112400D01*
X77939900Y-112574900D02*
X77939900Y-111939900D01*
X79844900Y-101779900D02*
X77939900Y-103684900D01*
X138264900Y-87809900D02*
X138899900Y-88444900D01*
D23*
X142074900Y-101779900D02*
X144614900Y-99239900D01*
D24*
X138899900Y-88444900D02*
X138899900Y-90349900D01*
X229704900Y-97969900D02*
X231822400Y-100087400D01*
X138264900Y-84634900D02*
X138264900Y-87809900D01*
X231289400Y-107317312D02*
X238451988Y-114479900D01*
X77939900Y-111939900D02*
X77939900Y-116384900D01*
X77939900Y-100509900D02*
X77939900Y-103684900D01*
X231822400Y-100087400D02*
X231822400Y-105361488D01*
X172142400Y-93112400D02*
X172078400Y-93112400D01*
X79844900Y-90349900D02*
X77939900Y-92254900D01*
X77939900Y-108764900D02*
X77939900Y-108129900D01*
X177634900Y-98604900D02*
X172142400Y-93112400D01*
X77939900Y-103684900D02*
X77939900Y-108129900D01*
X77939900Y-92254900D02*
X77939900Y-96064900D01*
X178904900Y-77809900D02*
X178744900Y-77809900D01*
X232244900Y-78919900D02*
X230339900Y-77014900D01*
X73494900Y-89714900D02*
X72859900Y-90349900D01*
X104609900Y-138609900D02*
X109689900Y-138609900D01*
X77939900Y-120194900D02*
X79844900Y-122099900D01*
X79844900Y-110669900D02*
X77939900Y-108764900D01*
X178824900Y-135989900D02*
X177634900Y-134799900D01*
X135089900Y-124639900D02*
X133819900Y-123369900D01*
X102704900Y-125909900D02*
X102704900Y-136704900D01*
X142074900Y-93524900D02*
X142074900Y-96699900D01*
X181764900Y-74949900D02*
X178904900Y-77809900D01*
D23*
X142074900Y-109138451D02*
X142074900Y-101779900D01*
D24*
X73494900Y-83999900D02*
X73494900Y-89714900D01*
X77939900Y-99854900D02*
X77939900Y-100509900D01*
X234149900Y-97334900D02*
X234149900Y-90984900D01*
X133819900Y-123369900D02*
X133819900Y-121020900D01*
X96989900Y-96064900D02*
X96989900Y-122734900D01*
X191604900Y-74949900D02*
X181764900Y-74949900D01*
X238451988Y-114479900D02*
X239864900Y-114479900D01*
X235419900Y-98604900D02*
X234149900Y-97334900D01*
X77939900Y-96064900D02*
X77939900Y-100509900D01*
X132549900Y-78919900D02*
X138264900Y-84634900D01*
X231822400Y-105361488D02*
X231289400Y-105894488D01*
X77939900Y-108129900D02*
X78574900Y-107494900D01*
X79844900Y-118289900D02*
X77939900Y-116384900D01*
X178904900Y-135989900D02*
X178824900Y-135989900D01*
X232244900Y-89079900D02*
X232244900Y-78919900D01*
X79844900Y-94159900D02*
X77939900Y-96064900D01*
X81114900Y-132894900D02*
X82384900Y-131624900D01*
X76034900Y-114479900D02*
X77939900Y-112574900D01*
X70954900Y-81459900D02*
X73494900Y-83999900D01*
X77939900Y-108129900D02*
X77939900Y-111939900D01*
D23*
X132581400Y-119782400D02*
X132581400Y-118631951D01*
X132581400Y-118631951D02*
X142074900Y-109138451D01*
D24*
X135089900Y-129084900D02*
X135089900Y-124639900D01*
X133819900Y-121020900D02*
X132581400Y-119782400D01*
X112389900Y-135909900D02*
X112864900Y-135909900D01*
X176364900Y-80189900D02*
X176364900Y-88825900D01*
X177634900Y-134799900D02*
X177634900Y-98604900D01*
X124929900Y-74474900D02*
X129374900Y-78919900D01*
X79844900Y-114479900D02*
X77939900Y-112574900D01*
X76034900Y-97969900D02*
X77919900Y-99854900D01*
%TO.N,/Leg Back Right/GND12V*%
X227164900Y-111939900D02*
X227164900Y-108764900D01*
X176364900Y-137974900D02*
X175999900Y-137609900D01*
D23*
X148424900Y-120829900D02*
X148424900Y-119559900D01*
X148424900Y-119559900D02*
X157314900Y-110669900D01*
D24*
X201129900Y-120194900D02*
X204304900Y-117019900D01*
X225894900Y-94159900D02*
X227164900Y-95429900D01*
X175999900Y-137609900D02*
X175999900Y-114178900D01*
X199224900Y-135434900D02*
X190334900Y-135434900D01*
X199224900Y-135434900D02*
X201129900Y-133529900D01*
X205574900Y-115749900D02*
X204304900Y-117019900D01*
X225894900Y-118269900D02*
X227144900Y-117019900D01*
X225979900Y-101739900D02*
X227164900Y-102924900D01*
X188429900Y-139244900D02*
X187794900Y-139879900D01*
D23*
X132581400Y-136927400D02*
X132581400Y-136673400D01*
D24*
X225894900Y-97969900D02*
X227164900Y-99239900D01*
X175999900Y-114178900D02*
X172078400Y-110257400D01*
X227164900Y-102924900D02*
X227164900Y-108764900D01*
X227164900Y-102924900D02*
X227164900Y-99239900D01*
X201129900Y-133529900D02*
X201129900Y-120194900D01*
X223989900Y-129719900D02*
X218274900Y-135434900D01*
X225894900Y-110034900D02*
X227164900Y-108764900D01*
X190334900Y-135434900D02*
X189699900Y-136069900D01*
X227144900Y-120809900D02*
X227164900Y-120829900D01*
X227164900Y-117019900D02*
X227164900Y-111939900D01*
X205574900Y-100509900D02*
X205574900Y-91619900D01*
X225894900Y-113864900D02*
X227164900Y-112594900D01*
X227164900Y-99239900D02*
X227164900Y-95429900D01*
X227164900Y-102924900D02*
X227164900Y-103049900D01*
X205574900Y-91619900D02*
X204304900Y-90349900D01*
X225894900Y-122099900D02*
X223989900Y-124004900D01*
X225894900Y-90349900D02*
X227164900Y-91619900D01*
X227144900Y-117019900D02*
X227144900Y-120809900D01*
X187794900Y-139879900D02*
X187794900Y-140244400D01*
X227164900Y-112594900D02*
X227164900Y-111939900D01*
X205574900Y-100509900D02*
X205574900Y-109399900D01*
X188429900Y-137339900D02*
X188429900Y-139244900D01*
X227144900Y-117019900D02*
X227164900Y-117019900D01*
D23*
X132581400Y-136673400D02*
X148424900Y-120829900D01*
D24*
X205574900Y-109399900D02*
X205574900Y-115749900D01*
X227164900Y-95429900D02*
X227164900Y-91619900D01*
X227164900Y-120829900D02*
X225894900Y-122099900D01*
X205574900Y-109399900D02*
X204304900Y-108129900D01*
X205574900Y-100509900D02*
X204304900Y-99239900D01*
X223989900Y-124004900D02*
X223989900Y-129719900D01*
X189699900Y-136069900D02*
X188429900Y-137339900D01*
D25*
%TO.N,/Left Controller /3V3*%
X183349900Y-125274900D02*
X180174900Y-128449900D01*
X247484900Y-117019900D02*
X247484900Y-113844900D01*
X126199900Y-124004900D02*
X129374900Y-127179900D01*
X56349900Y-79554900D02*
X56349900Y-90349900D01*
X126199900Y-87174900D02*
X126199900Y-124004900D01*
X56349900Y-132894900D02*
X56349900Y-132259900D01*
X243039900Y-122774900D02*
X243039900Y-122734900D01*
X243039900Y-132894900D02*
X243039900Y-137339900D01*
X172078400Y-119782400D02*
X172078400Y-120671400D01*
X244944900Y-119559900D02*
X247484900Y-117019900D01*
X244904900Y-124639900D02*
X243039900Y-122774900D01*
X243039900Y-121464900D02*
X243039900Y-122734900D01*
X249389900Y-94834900D02*
X247444900Y-92889900D01*
X56349900Y-118289900D02*
X56349900Y-117654900D01*
X243039900Y-138014900D02*
X244904900Y-139879900D01*
X244944900Y-119559900D02*
X243039900Y-121464900D01*
X172078400Y-120671400D02*
X163029900Y-129719900D01*
X163029900Y-129719900D02*
X163029900Y-138609900D01*
X58254900Y-87809900D02*
X56349900Y-89714900D01*
X243039900Y-137339900D02*
X243039900Y-138014900D01*
X56349900Y-132259900D02*
X56349900Y-122099900D01*
X124294900Y-85269900D02*
X126199900Y-87174900D01*
X247484900Y-113844900D02*
X249389900Y-111939900D01*
X58254900Y-139879900D02*
X56349900Y-137974900D01*
X58254900Y-72569900D02*
X56349900Y-74474900D01*
X56349900Y-90349900D02*
X56349900Y-94159900D01*
X56349900Y-94794900D02*
X58254900Y-92889900D01*
X58294900Y-124639900D02*
X56349900Y-122694900D01*
X56349900Y-94159900D02*
X56349900Y-94794900D01*
X249389900Y-74474900D02*
X249389900Y-94834900D01*
X243039900Y-122734900D02*
X243039900Y-132894900D01*
X241769900Y-140514900D02*
X243039900Y-139244900D01*
X243039900Y-132934900D02*
X243039900Y-132894900D01*
X249389900Y-111939900D02*
X249389900Y-94834900D01*
X249349900Y-89714900D02*
X249389900Y-89714900D01*
X244904900Y-134799900D02*
X243039900Y-132934900D01*
X56349900Y-89714900D02*
X56349900Y-90349900D01*
X249389900Y-89714900D02*
X249389900Y-79594900D01*
X56349900Y-122694900D02*
X56349900Y-122099900D01*
X249389900Y-79594900D02*
X247444900Y-77649900D01*
X56349900Y-94159900D02*
X56349900Y-118289900D01*
X247444900Y-87809900D02*
X249349900Y-89714900D01*
X247484900Y-72569900D02*
X249389900Y-74474900D01*
X56349900Y-137974900D02*
X56349900Y-132259900D01*
X56349900Y-74474900D02*
X56349900Y-79554900D01*
X58254900Y-77649900D02*
X56349900Y-79554900D01*
X56349900Y-117654900D02*
X56359900Y-117654900D01*
X243039900Y-139244900D02*
X243039900Y-137339900D01*
X56359900Y-117654900D02*
X58254900Y-119549900D01*
X183349900Y-123369900D02*
X183349900Y-125274900D01*
X56349900Y-122099900D02*
X56349900Y-118289900D01*
X58254900Y-134799900D02*
X56349900Y-132894900D01*
X182714900Y-122734900D02*
X183349900Y-123369900D01*
X163029900Y-138609900D02*
X163664900Y-139244900D01*
%TO.N,/Left Controller /GND3V3*%
X73751950Y-124382850D02*
X73494900Y-124639900D01*
X241134900Y-120194900D02*
X241134900Y-124004900D01*
X76034900Y-94159900D02*
X72859900Y-97334900D01*
X73872850Y-124382850D02*
X73751950Y-124382850D01*
X246214900Y-108129900D02*
X244309900Y-108129900D01*
X172078400Y-137181400D02*
X169379900Y-139879900D01*
X76034900Y-90349900D02*
X72859900Y-93524900D01*
X242404900Y-117019900D02*
X241134900Y-118289900D01*
X241134900Y-124004900D02*
X241134900Y-137974900D01*
X172078400Y-136927400D02*
X170014900Y-134863900D01*
X241134900Y-119559900D02*
X241134900Y-120194900D01*
X242404900Y-113209900D02*
X242404900Y-113844900D01*
X232244900Y-92889900D02*
X232244900Y-96064900D01*
X247484900Y-106859900D02*
X246214900Y-108129900D01*
X232244900Y-97969900D02*
X234149900Y-99874900D01*
X72859900Y-121464900D02*
X72859900Y-122734900D01*
X229704900Y-90349900D02*
X232244900Y-92889900D01*
X72859900Y-105589900D02*
X72859900Y-113844900D01*
X242404900Y-113844900D02*
X242404900Y-117019900D01*
X239864900Y-110669900D02*
X242404900Y-113209900D01*
X242404900Y-110034900D02*
X242404900Y-113844900D01*
X76034900Y-110669900D02*
X72859900Y-113844900D01*
X124294900Y-87809900D02*
X119849900Y-92254900D01*
X243674900Y-104319900D02*
X242404900Y-105589900D01*
X119849900Y-139879900D02*
X120484900Y-140514900D01*
X76079800Y-122175901D02*
X73872850Y-124382850D01*
X72859900Y-97334900D02*
X72859900Y-97969900D01*
X234149900Y-99874900D02*
X234149900Y-101779900D01*
X73494900Y-124639900D02*
X74129900Y-125274900D01*
X172078400Y-136927400D02*
X172078400Y-137181400D01*
X242404900Y-105589900D02*
X242404900Y-110034900D01*
X164934900Y-139879900D02*
X163664900Y-141149900D01*
X119849900Y-92254900D02*
X119849900Y-139879900D01*
X241134900Y-118289900D02*
X241134900Y-120194900D01*
X241134900Y-137974900D02*
X240499900Y-138609900D01*
X239864900Y-122099900D02*
X241134900Y-123369900D01*
X229704900Y-94159900D02*
X232244900Y-96699900D01*
X239864900Y-118289900D02*
X241134900Y-119559900D01*
X72859900Y-97969900D02*
X72859900Y-105589900D01*
X76034900Y-118289900D02*
X72859900Y-121464900D01*
X232244900Y-96064900D02*
X232244900Y-96699900D01*
X72859900Y-122734900D02*
X72859900Y-124004900D01*
X72859900Y-93524900D02*
X72859900Y-97969900D01*
X170014900Y-134863900D02*
X170014900Y-130989900D01*
X72859900Y-113844900D02*
X72859900Y-122734900D01*
X241134900Y-123369900D02*
X241134900Y-124004900D01*
X72859900Y-124004900D02*
X74129900Y-125274900D01*
X244309900Y-108129900D02*
X242404900Y-110034900D01*
X76034900Y-101779900D02*
X72859900Y-104954900D01*
X72859900Y-104954900D02*
X72859900Y-105589900D01*
X169379900Y-139879900D02*
X164934900Y-139879900D01*
X170014900Y-130989900D02*
X171284900Y-129719900D01*
X232244900Y-96699900D02*
X232244900Y-97969900D01*
X234149900Y-101779900D02*
X234784900Y-102414900D01*
%TO.N,/Left Controller /FL_F_IN1*%
X100164900Y-96699900D02*
X100164900Y-91619900D01*
X101434900Y-98677700D02*
X101434900Y-97969900D01*
X100988400Y-90796400D02*
X100988400Y-86351400D01*
X100164900Y-91619900D02*
X100988400Y-90796400D01*
X101434900Y-97969900D02*
X100164900Y-96699900D01*
X100836300Y-99276300D02*
X101434900Y-98677700D01*
X100988400Y-86351400D02*
X101434900Y-85904900D01*
%TO.N,/Left Controller /FL_F_IN2*%
X102069900Y-90984900D02*
X102069900Y-87809900D01*
X102069900Y-87809900D02*
X102704900Y-87174900D01*
X100799900Y-96064900D02*
X100799900Y-92254900D01*
X100799900Y-92254900D02*
X102069900Y-90984900D01*
X102069900Y-99239900D02*
X102069900Y-97334900D01*
X100799900Y-100509900D02*
X102069900Y-99239900D01*
X102069900Y-97334900D02*
X100799900Y-96064900D01*
%TO.N,/Leg Back Right/BR_F_IN1*%
X199224900Y-117019900D02*
X201129900Y-115114900D01*
X201129900Y-115114900D02*
X201129900Y-114479900D01*
X201129900Y-114479900D02*
X203669900Y-111939900D01*
%TO.N,/Leg Back Right/BR_F_IN2*%
X199224900Y-114479900D02*
X203034900Y-110669900D01*
%TO.N,/Leg Back Right/BR_K_IN1*%
X195414900Y-120194900D02*
X195414900Y-113209900D01*
X195414900Y-113209900D02*
X197954900Y-110669900D01*
X196049900Y-120829900D02*
X195414900Y-120194900D01*
%TO.N,/Leg Back Right/BR_K_IN2*%
X194740400Y-116980400D02*
X194144900Y-116384900D01*
X194144900Y-111939900D02*
X197954900Y-108129900D01*
X194144900Y-116384900D02*
X194144900Y-111939900D01*
X194740400Y-117019900D02*
X194740400Y-116980400D01*
%TO.N,/Left Controller /BL_F_IN1*%
X100836300Y-109436300D02*
X101434900Y-108837700D01*
X101434900Y-101144900D02*
X102704900Y-99874900D01*
X101434900Y-108837700D02*
X101434900Y-101144900D01*
X102704900Y-99874900D02*
X102704900Y-96699900D01*
X102704900Y-96699900D02*
X102069900Y-96064900D01*
%TO.N,/Left Controller /BL_F_IN2*%
X102704900Y-100509900D02*
X102844594Y-100649594D01*
X100799900Y-111304900D02*
X102069900Y-110034900D01*
X102069900Y-101144900D02*
X102704900Y-100509900D01*
X102844594Y-100649594D02*
X102844594Y-100689094D01*
X102069900Y-110034900D02*
X102069900Y-101144900D01*
%TO.N,/Leg Back Right/BR_F_EA*%
X200494900Y-107494900D02*
X200494900Y-111304900D01*
X200534400Y-94120400D02*
X199859900Y-94794900D01*
X228434900Y-115114900D02*
X229069900Y-115749900D01*
X201764900Y-104954900D02*
X201764900Y-106224900D01*
X199859900Y-103049900D02*
X201764900Y-104954900D01*
X228434900Y-111939900D02*
X228434900Y-115114900D01*
X200494900Y-111304900D02*
X199859900Y-111939900D01*
X201764900Y-106224900D02*
X200494900Y-107494900D01*
X199859900Y-94794900D02*
X199859900Y-103049900D01*
X200534400Y-93483024D02*
X200534400Y-94120400D01*
X229704900Y-110669900D02*
X228434900Y-111939900D01*
%TO.N,/Leg Back Right/BR_F_EB*%
X202399900Y-104954900D02*
X202399900Y-106859900D01*
X201129900Y-92254900D02*
X201764900Y-92889900D01*
X201764900Y-94159900D02*
X200494900Y-95429900D01*
X201129900Y-110034900D02*
X201764900Y-110669900D01*
X201129900Y-108129900D02*
X201129900Y-110034900D01*
X202399900Y-106859900D02*
X201129900Y-108129900D01*
X200494900Y-95429900D02*
X200494900Y-103049900D01*
X200494900Y-103049900D02*
X202399900Y-104954900D01*
X201764900Y-92889900D02*
X201764900Y-94159900D01*
%TO.N,/Leg Back Right/BR_K_EA*%
X195414900Y-92254900D02*
X195414900Y-87809900D01*
X235419900Y-136069900D02*
X231609900Y-132259900D01*
X227016017Y-124788783D02*
X229704900Y-122099900D01*
X227016017Y-124793625D02*
X227016017Y-124788783D01*
X231609900Y-132259900D02*
X231609900Y-124004900D01*
X194499000Y-92889900D02*
X194779900Y-92889900D01*
X187159900Y-122734900D02*
X187159900Y-100229000D01*
X195414900Y-87809900D02*
X197954900Y-85269900D01*
X194779900Y-92889900D02*
X195414900Y-92254900D01*
X189064900Y-124639900D02*
X187159900Y-122734900D01*
X187159900Y-100229000D02*
X194499000Y-92889900D01*
X231609900Y-124004900D02*
X229704900Y-122099900D01*
%TO.N,/Leg Back Right/BR_K_EB*%
X184525800Y-112669000D02*
X183984900Y-113209900D01*
X183984900Y-118289900D02*
X185889900Y-120194900D01*
X184525800Y-96159000D02*
X184525800Y-112669000D01*
X232879900Y-121464900D02*
X229704900Y-118289900D01*
X232879900Y-129719900D02*
X232879900Y-121464900D01*
X234784900Y-131624900D02*
X232879900Y-129719900D01*
X183984900Y-113209900D02*
X183984900Y-118289900D01*
X197954900Y-82729900D02*
X184525800Y-96159000D01*
D24*
%TO.N,/Leg Back Right/BR_F_VREF*%
X205257400Y-123052400D02*
X203034900Y-125274900D01*
X207519400Y-113805400D02*
X207479900Y-113805400D01*
X203034900Y-125274900D02*
X203034900Y-131624900D01*
X207479900Y-113844900D02*
X207479900Y-113805400D01*
X185889900Y-129719900D02*
X187159900Y-130989900D01*
X208114900Y-112574900D02*
X208114900Y-113209900D01*
X206844900Y-104319900D02*
X207479900Y-104954900D01*
X208114900Y-113209900D02*
X207519400Y-113805400D01*
X182714900Y-119559900D02*
X185889900Y-122734900D01*
X203034900Y-131624900D02*
X202399900Y-132259900D01*
X205257400Y-123052400D02*
X206844900Y-121464900D01*
X207479900Y-111939900D02*
X208114900Y-112574900D01*
X207479900Y-96064900D02*
X206844900Y-95429900D01*
X206844900Y-121464900D02*
X206844900Y-114479900D01*
X207479900Y-104954900D02*
X207479900Y-111939900D01*
X180174900Y-120829900D02*
X181444900Y-119559900D01*
X207479900Y-104954900D02*
X207479900Y-96064900D01*
X185889900Y-122734900D02*
X185889900Y-129719900D01*
X206844900Y-114479900D02*
X207479900Y-113844900D01*
X204304900Y-122099900D02*
X205257400Y-123052400D01*
X181444900Y-119559900D02*
X182714900Y-119559900D01*
%TO.N,Net-(D5-Pad2)*%
X203034900Y-96699900D02*
X203034900Y-78759900D01*
X210019900Y-99239900D02*
X210654900Y-99874900D01*
X210654900Y-103049900D02*
X211924900Y-104319900D01*
X210019900Y-98604900D02*
X210019900Y-99239900D01*
X210654900Y-99874900D02*
X210654900Y-103049900D01*
X204304900Y-97969900D02*
X203034900Y-96699900D01*
X203034900Y-78759900D02*
X199224900Y-74949900D01*
D25*
%TO.N,/Left Controller /BL_K_IN1*%
X101434900Y-117654900D02*
X101434900Y-112574900D01*
X100799900Y-118289900D02*
X101434900Y-117654900D01*
X101434900Y-112574900D02*
X102704900Y-111304900D01*
X102704900Y-111304900D02*
X102704900Y-105589900D01*
X102704900Y-105589900D02*
X103339900Y-104954900D01*
%TO.N,/Left Controller /BL_K_IN2*%
X103339900Y-111939900D02*
X103339900Y-107494900D01*
X100799900Y-119559900D02*
X102069900Y-118289900D01*
X102069900Y-113209900D02*
X103339900Y-111939900D01*
X102069900Y-118289900D02*
X102069900Y-113209900D01*
X103339900Y-107494900D02*
X103974900Y-106859900D01*
%TO.N,/Left Controller /FL_F_EA*%
X62699900Y-98604900D02*
X65874900Y-101779900D01*
X62699900Y-89754900D02*
X62699900Y-98604900D01*
X60754900Y-87809900D02*
X62699900Y-89754900D01*
X65874900Y-101779900D02*
X65874900Y-104954900D01*
X65874900Y-104954900D02*
X68414900Y-107494900D01*
D24*
%TO.N,Net-(D4-Pad2)*%
X100799900Y-137339900D02*
X102069900Y-138609900D01*
X98259900Y-124004900D02*
X100799900Y-126544900D01*
X100799900Y-126544900D02*
X100799900Y-137339900D01*
X93814900Y-118289900D02*
X93814900Y-122090160D01*
X95715030Y-123365030D02*
X96354900Y-124004900D01*
X91909900Y-116384900D02*
X93814900Y-118289900D01*
X95089770Y-123365030D02*
X95715030Y-123365030D01*
X93814900Y-122090160D02*
X95089770Y-123365030D01*
X96354900Y-124004900D02*
X98259900Y-124004900D01*
%TO.N,Net-(J8-Pad2)*%
X86194900Y-90349900D02*
X86194900Y-88402998D01*
X86194900Y-88402998D02*
X89109999Y-85487899D01*
X86829900Y-90984900D02*
X86194900Y-90349900D01*
D25*
%TO.N,/Left Controller /FL_F_EB*%
X59524900Y-100509900D02*
X67144900Y-108129900D01*
X59524900Y-94119900D02*
X60754900Y-92889900D01*
X59524900Y-95429900D02*
X59524900Y-100509900D01*
X59504900Y-95429900D02*
X59524900Y-95429900D01*
X59524900Y-95429900D02*
X59524900Y-94119900D01*
X58234900Y-96699900D02*
X59504900Y-95429900D01*
D24*
%TO.N,Net-(J8-Pad1)*%
X94449900Y-92889900D02*
X94449900Y-87347999D01*
X94449900Y-87347999D02*
X96310000Y-85487899D01*
X91909900Y-95429900D02*
X94449900Y-92889900D01*
D25*
%TO.N,Net-(J5-Pad1)*%
X63334900Y-87809900D02*
X63334900Y-89079900D01*
X58254900Y-82729900D02*
X63334900Y-87809900D01*
X65874900Y-97969900D02*
X63334900Y-95429900D01*
X63334900Y-95429900D02*
X63334900Y-89079900D01*
%TO.N,/Left Controller /FL_K_EA*%
X64604900Y-89079900D02*
X65874900Y-90349900D01*
X60754900Y-72569900D02*
X64604900Y-76419900D01*
X110324900Y-97969900D02*
X110324900Y-111939900D01*
X110324900Y-111939900D02*
X106514900Y-115749900D01*
X109689900Y-97334900D02*
X110324900Y-97969900D01*
X64604900Y-76419900D02*
X64604900Y-89079900D01*
%TO.N,/Left Controller /FL_K_EB*%
X60754900Y-77649900D02*
X63969900Y-80864900D01*
X63969900Y-92254900D02*
X65874900Y-94159900D01*
X69049900Y-106224900D02*
X69684900Y-106859900D01*
X63969900Y-80864900D02*
X63969900Y-92254900D01*
X111594900Y-103645400D02*
X111594900Y-113209900D01*
X69049900Y-97334900D02*
X69049900Y-106224900D01*
X65874900Y-94159900D02*
X69049900Y-97334900D01*
X111594900Y-113209900D02*
X106514900Y-118289900D01*
X110999400Y-103049900D02*
X111594900Y-103645400D01*
%TO.N,/Left Controller /BL_F_EA*%
X70319900Y-131519505D02*
X72518795Y-133718400D01*
X62064900Y-117654900D02*
X63334900Y-116384900D01*
X70319900Y-130354900D02*
X70319900Y-131519505D01*
X76669900Y-134164900D02*
X76669900Y-134125400D01*
X63334900Y-116384900D02*
X63334900Y-113209900D01*
X76223400Y-133718400D02*
X76669900Y-134164900D01*
X63969900Y-127179900D02*
X64604900Y-127814900D01*
X63969900Y-121464900D02*
X63969900Y-127179900D01*
X62064900Y-120829900D02*
X62064900Y-117654900D01*
X72518795Y-133718400D02*
X76223400Y-133718400D01*
X60794900Y-124639900D02*
X61429900Y-124004900D01*
X61429900Y-124004900D02*
X61429900Y-121464900D01*
X64604900Y-119520400D02*
X64604900Y-120829900D01*
X64604900Y-120829900D02*
X63969900Y-121464900D01*
X63334900Y-113209900D02*
X65874900Y-110669900D01*
X61429900Y-121464900D02*
X62064900Y-120829900D01*
%TO.N,/Left Controller /BL_F_EB*%
X59524900Y-118319900D02*
X60754900Y-119549900D01*
X59524900Y-118289900D02*
X59524900Y-118319900D01*
X62064900Y-115749900D02*
X59524900Y-118289900D01*
%TO.N,/Left Controller /BL_K_EA*%
X92544900Y-134799900D02*
X68414900Y-134799900D01*
X60754900Y-139879900D02*
X67104900Y-133529900D01*
X67144900Y-133529900D02*
X67144900Y-123401001D01*
X67104900Y-133529900D02*
X67144900Y-133529900D01*
X96354900Y-130989900D02*
X92544900Y-134799900D01*
X96989900Y-130989900D02*
X96354900Y-130989900D01*
X68414900Y-134799900D02*
X67144900Y-133529900D01*
X67144900Y-123401001D02*
X65919800Y-122175901D01*
%TO.N,/Left Controller /BL_K_EB*%
X70319900Y-122734900D02*
X68414900Y-122734900D01*
X67144900Y-119559900D02*
X67144900Y-120829900D01*
X65874900Y-129679900D02*
X65874900Y-125274900D01*
X73494900Y-128449900D02*
X72859900Y-127814900D01*
X65874900Y-125274900D02*
X66509900Y-124639900D01*
X66509900Y-124639900D02*
X66470400Y-124639900D01*
X60754900Y-134799900D02*
X65874900Y-129679900D01*
X67144900Y-120829900D02*
X67779900Y-121464900D01*
X72859900Y-125274900D02*
X70319900Y-122734900D01*
X67779900Y-121464900D02*
X67779900Y-122099900D01*
X65874900Y-118289900D02*
X67144900Y-119559900D01*
X72859900Y-127814900D02*
X72859900Y-125274900D01*
X74169400Y-128449900D02*
X73494900Y-128449900D01*
X67779900Y-122099900D02*
X68414900Y-122734900D01*
%TO.N,/Left Controller /3V3_VREF*%
X98894900Y-110034900D02*
X98894900Y-99874900D01*
X98894900Y-99874900D02*
X98894900Y-91619900D01*
X100164900Y-108764900D02*
X98894900Y-110034900D01*
X98894900Y-91619900D02*
X100164900Y-90349900D01*
X100164900Y-117019900D02*
X98894900Y-115749900D01*
X100164900Y-98604900D02*
X98894900Y-99874900D01*
X98894900Y-115749900D02*
X98894900Y-110034900D01*
%TO.N,/Leg Front Right/FR_F_IN1*%
X192874900Y-129084900D02*
X195414900Y-131624900D01*
X196049900Y-105589900D02*
X192874900Y-108764900D01*
X192874900Y-108764900D02*
X192874900Y-129084900D01*
%TO.N,/Leg Front Right/FR_F_IN2*%
X190969900Y-108129900D02*
X190969900Y-122099900D01*
X190969900Y-122099900D02*
X192239900Y-123369900D01*
X192239900Y-123369900D02*
X192200400Y-123369900D01*
X195414900Y-129084900D02*
X194779900Y-128449900D01*
X196049900Y-103049900D02*
X190969900Y-108129900D01*
X194779900Y-128449900D02*
X194779900Y-124639900D01*
X194779900Y-124639900D02*
X194144900Y-124004900D01*
%TO.N,/Leg Front Right/FR_K_IN1*%
X189064900Y-104954900D02*
X189064900Y-115749900D01*
X196049900Y-97969900D02*
X189064900Y-104954900D01*
X189064900Y-115749900D02*
X189699900Y-116384900D01*
%TO.N,/Leg Front Right/FR_K_IN2*%
X194779900Y-95429900D02*
X195414900Y-94794900D01*
X188390400Y-113170400D02*
X187794900Y-112574900D01*
X187794900Y-112574900D02*
X187794900Y-104319900D01*
X194779900Y-97334900D02*
X194779900Y-95429900D01*
X192239900Y-99874900D02*
X194779900Y-97334900D01*
X188390400Y-113209900D02*
X188390400Y-113170400D01*
X187794900Y-104319900D02*
X192239900Y-99874900D01*
%TO.N,/Leg Front Right/FR_F_EA*%
X244944900Y-87809900D02*
X242404900Y-90349900D01*
X242404900Y-90349900D02*
X242404900Y-99239900D01*
X242404900Y-99239900D02*
X239864900Y-101779900D01*
%TO.N,/Leg Front Right/FR_F_EB*%
X233514900Y-106097900D02*
X233006900Y-106605900D01*
X243039900Y-101144900D02*
X247484900Y-96699900D01*
X243039900Y-101144900D02*
X238086900Y-106097900D01*
X244944900Y-92889900D02*
X243039900Y-94794900D01*
X238086900Y-106097900D02*
X233514900Y-106097900D01*
X197954900Y-103049900D02*
X200494900Y-105589900D01*
X243039900Y-94794900D02*
X243039900Y-101144900D01*
%TO.N,/Leg Front Right/FR_K_EA*%
X238594900Y-89079900D02*
X238594900Y-84634900D01*
X238594900Y-84634900D02*
X239229900Y-83999900D01*
X239229900Y-83999900D02*
X239229900Y-78324900D01*
X239229900Y-78324900D02*
X244984900Y-72569900D01*
X237959900Y-92254900D02*
X239864900Y-90349900D01*
X237324900Y-95429900D02*
X237959900Y-94794900D01*
X239864900Y-90349900D02*
X238594900Y-89079900D01*
X237959900Y-94794900D02*
X237959900Y-92254900D01*
%TO.N,/Leg Front Right/FR_K_EB*%
X197954900Y-95429900D02*
X199859900Y-93524900D01*
X240499900Y-79554900D02*
X241134900Y-80189900D01*
X199859900Y-86539900D02*
X200494900Y-85904900D01*
X244944900Y-77649900D02*
X241134900Y-81459900D01*
X199859900Y-93524900D02*
X199859900Y-86539900D01*
X241134900Y-92889900D02*
X239864900Y-94159900D01*
X241134900Y-80189900D02*
X241134900Y-81459900D01*
X241134900Y-81459900D02*
X241134900Y-92889900D01*
D24*
%TO.N,Net-(D6-Pad2)*%
X205574900Y-89079900D02*
X205574900Y-82729900D01*
X205574900Y-82729900D02*
X204304900Y-81459900D01*
X211924900Y-95429900D02*
X205574900Y-89079900D01*
%TO.N,Net-(J22-Pad2)*%
X210654900Y-91619900D02*
X210654900Y-87652800D01*
X210654900Y-87652800D02*
X208489999Y-85487899D01*
X213194900Y-94159900D02*
X210654900Y-91619900D01*
%TO.N,Net-(J22-Pad1)*%
X213194900Y-87982999D02*
X215690000Y-85487899D01*
X211924900Y-90349900D02*
X213194900Y-89079900D01*
X213194900Y-89079900D02*
X213194900Y-87982999D01*
%TO.N,Net-(D1-Pad2)*%
X96354900Y-90349900D02*
X100164900Y-86539900D01*
X96354900Y-94794900D02*
X96354900Y-90349900D01*
X100164900Y-82729900D02*
X100324900Y-82729900D01*
X100164900Y-86539900D02*
X100164900Y-82729900D01*
X92544900Y-98604900D02*
X96354900Y-94794900D01*
X100324900Y-82729900D02*
X105244900Y-77809900D01*
%TO.N,Net-(J7-Pad2)*%
X83654900Y-99239900D02*
X82384900Y-97969900D01*
X82384900Y-97969900D02*
X82384900Y-92889900D01*
X82384900Y-92889900D02*
X81749900Y-92254900D01*
D25*
%TO.N,Net-(R7-Pad1)*%
X90004900Y-97949900D02*
X91274900Y-99219900D01*
X91274900Y-100509900D02*
X90004900Y-101779900D01*
X91274900Y-99874900D02*
X91274900Y-100509900D01*
X91768496Y-100368496D02*
X91274900Y-99874900D01*
X91274900Y-99219900D02*
X91274900Y-99874900D01*
X91768496Y-101286304D02*
X91768496Y-100368496D01*
D24*
%TO.N,Net-(J7-Pad1)*%
X81749900Y-88444900D02*
X85559900Y-92254900D01*
X76950000Y-85487899D02*
X79907001Y-88444900D01*
X79907001Y-88444900D02*
X81749900Y-88444900D01*
X85559900Y-100509900D02*
X86829900Y-101779900D01*
X85559900Y-92254900D02*
X85559900Y-100509900D01*
%TO.N,Net-(D2-Pad2)*%
X92544900Y-89714900D02*
X91909900Y-90349900D01*
X92544900Y-81459900D02*
X92544900Y-89714900D01*
X93814900Y-80189900D02*
X92544900Y-81459900D01*
D25*
%TO.N,Net-(R10-Pad2)*%
X91274900Y-91619900D02*
X90004900Y-90349900D01*
X91274900Y-92889900D02*
X90004900Y-94159900D01*
X91909900Y-92889900D02*
X91274900Y-92254900D01*
X91274900Y-92254900D02*
X91274900Y-91619900D01*
X91274900Y-92254900D02*
X91274900Y-92889900D01*
X91909900Y-93352900D02*
X91909900Y-92889900D01*
D24*
%TO.N,Net-(D3-Pad2)*%
X103974900Y-134639900D02*
X103974900Y-117019900D01*
X95084900Y-115114900D02*
X95084900Y-111939900D01*
X95084900Y-111939900D02*
X91909900Y-108764900D01*
X103974900Y-117019900D02*
X103339900Y-116384900D01*
X105244900Y-135909900D02*
X103974900Y-134639900D01*
%TO.N,Net-(J14-Pad2)*%
X81749900Y-129084900D02*
X83019900Y-127814900D01*
X79209900Y-129084900D02*
X81749900Y-129084900D01*
X83019900Y-127814900D02*
X83019900Y-113844900D01*
X77094901Y-126961901D02*
X79209900Y-129076900D01*
X79209900Y-129076900D02*
X79209900Y-129084900D01*
X83019900Y-113844900D02*
X86829900Y-110034900D01*
%TO.N,Net-(J14-Pad1)*%
X73287899Y-130354900D02*
X73494900Y-130354900D01*
X84289900Y-117654900D02*
X84289900Y-118289900D01*
X84289900Y-128449900D02*
X82384900Y-130354900D01*
X84924900Y-117019900D02*
X84289900Y-117654900D01*
X82384900Y-130354900D02*
X73494900Y-130354900D01*
X84289900Y-118289900D02*
X84289900Y-128449900D01*
X69894900Y-126961901D02*
X73287899Y-130354900D01*
%TO.N,Net-(J15-Pad2)*%
X97249801Y-126961901D02*
X91909900Y-121622000D01*
X91909900Y-121622000D02*
X91909900Y-118289900D01*
%TO.N,Net-(J21-Pad2)*%
X222719900Y-94794900D02*
X222719900Y-91405700D01*
X222719900Y-91405700D02*
X228637701Y-85487899D01*
X215099900Y-99874900D02*
X217639900Y-99874900D01*
X213194900Y-101779900D02*
X215099900Y-99874900D01*
X228637701Y-85487899D02*
X228809999Y-85487899D01*
X217639900Y-99874900D02*
X222719900Y-94794900D01*
%TO.N,Net-(J21-Pad1)*%
X211924900Y-99239900D02*
X214236400Y-96928400D01*
X214236400Y-89308400D02*
X214464900Y-89079900D01*
X214236400Y-96928400D02*
X214236400Y-89308400D01*
%TO.N,Net-(D7-Pad2)*%
X199224900Y-138529900D02*
X204939900Y-132814900D01*
X204939900Y-132814900D02*
X204939900Y-125909900D01*
X208114900Y-122734900D02*
X208114900Y-117019900D01*
X204939900Y-125909900D02*
X208114900Y-122734900D01*
X208114900Y-117019900D02*
X211924900Y-113209900D01*
%TO.N,Net-(J28-Pad2)*%
X218909900Y-128449900D02*
X218274900Y-127814900D01*
X218274900Y-118690700D02*
X215969100Y-116384900D01*
X213829900Y-115114900D02*
X213829900Y-113209900D01*
X218274900Y-127814900D02*
X218274900Y-118690700D01*
X215969100Y-116384900D02*
X215099900Y-116384900D01*
X215099900Y-116384900D02*
X213829900Y-115114900D01*
D25*
%TO.N,Net-(R34-Pad1)*%
X214464900Y-112574900D02*
X214606304Y-112433496D01*
X215734900Y-113864900D02*
X214464900Y-112594900D01*
X214464900Y-112594900D02*
X214464900Y-112574900D01*
D24*
%TO.N,Net-(J28-Pad1)*%
X220814900Y-127814900D02*
X220179900Y-127179900D01*
X220179900Y-111939900D02*
X219544900Y-111304900D01*
X220179900Y-127179900D02*
X220179900Y-111939900D01*
%TO.N,Net-(D8-Pad2)*%
X211924900Y-122099900D02*
X211924900Y-129084900D01*
X211924900Y-129084900D02*
X208749900Y-132259900D01*
%TO.N,Net-(J29-Pad2)*%
X213829900Y-125432000D02*
X213829900Y-121464900D01*
X215359801Y-126961901D02*
X213829900Y-125432000D01*
%TO.N,Net-(J29-Pad1)*%
X210481801Y-124639900D02*
X208159800Y-126961901D01*
X211924900Y-117019900D02*
X210654900Y-118289900D01*
X210654900Y-124639900D02*
X210481801Y-124639900D01*
X210654900Y-118289900D02*
X210654900Y-124639900D01*
D25*
%TO.N,Net-(J26-Pad1)*%
X238594900Y-129084900D02*
X238594900Y-124004900D01*
X237324900Y-119559900D02*
X235419900Y-117654900D01*
X239229900Y-129719900D02*
X238594900Y-129084900D01*
X237324900Y-122734900D02*
X237324900Y-119559900D01*
X238594900Y-124004900D02*
X237324900Y-122734900D01*
%TO.N,Net-(R14-Pad1)*%
X58254900Y-129719900D02*
X62064900Y-125909900D01*
X63969900Y-116950585D02*
X63969900Y-116384900D01*
X63969900Y-116384900D02*
X65874900Y-114479900D01*
X63334900Y-117585585D02*
X63969900Y-116950585D01*
X63334900Y-120829900D02*
X63334900Y-117585585D01*
X62064900Y-125909900D02*
X62064900Y-122099900D01*
X62064900Y-122099900D02*
X63334900Y-120829900D01*
%TD*%
M02*
